<?xml version="1.0" encoding="utf-8"?>
<!-- Generator: Adobe Illustrator 25.4.1, SVG Export Plug-In . SVG Version: 6.00 Build 0)  -->
<svg version="1.1" id="Layer_1" xmlns="http://www.w3.org/2000/svg" xmlns:xlink="http://www.w3.org/1999/xlink" x="0px" y="0px"
	 viewBox="0 0 198.1 57.21" style="enable-background:new 0 0 198.1 57.21;" xml:space="preserve">
<style type="text/css">
	.st0{fill:#FFFFFF;}
</style>
<g>
	<path class="st0" d="M187.71,46.6c4.72-0.69,7.74-3.66,7.74-7.32c0-3.87-2.97-7.05-8.91-7.05h-20.25v24.23h5.41V36.67h13.52
		c2.55,0,4.29,1.12,4.29,3.51c0,2.17-1.75,3.72-4.99,3.72h-8.06v4.08h2.87c3.39,0,5.35,0.9,7.1,2.97l4.66,5.51h7l-6.04-7.21
		C190.89,47.87,189.51,46.92,187.71,46.6"/>
	<path class="st0" d="M93.75,37.59C90.36,34.4,84.58,31.7,78,31.7c-10.34,0-17.44,5.2-17.44,12.57c0,7.37,7.05,12.67,17.34,12.67
		c6.68,0,12.41-2.28,15.85-5.83l-3.98-3.39c-2.55,2.54-6.63,4.61-11.77,4.61c-6.58,0-11.35-3.02-11.35-8.06
		c0-4.88,4.77-7.95,11.24-7.95c5.25,0,9.22,2.01,11.88,4.67L93.75,37.59"/>
	<path class="st0" d="M127.52,37.59c-3.39-3.18-9.17-5.89-15.75-5.89c-10.34,0-17.44,5.2-17.44,12.57c0,7.37,7.05,12.67,17.33,12.67
		c6.68,0,12.41-2.28,15.86-5.83l-3.98-3.39c-2.54,2.54-6.63,4.61-11.77,4.61c-6.57,0-11.35-3.02-11.35-8.06
		c0-4.88,4.77-7.95,11.24-7.95c5.25,0,9.23,2.01,11.88,4.67L127.52,37.59"/>
	<path class="st0" d="M45.02,51.95l2.86-4.35h-8.64c-1.86,0-3.07,0.21-4.29,1.38l8.48-12.14l14,19.62h6.47L46.51,32.23h-5.68
		l-17.5,24.23h6.26l1.86-2.7c0.96-1.38,1.75-1.8,3.34-1.8H45.02"/>
	<path class="st0" d="M145.82,31.7c-10.02,0-17.66,4.98-17.66,12.57c0,7.64,7.64,12.67,17.66,12.67c10.71,0,18.29-5.04,18.29-12.78
		C164.11,36.73,156.53,31.7,145.82,31.7 M145.76,52.32c-6.26,0-11.51-2.91-11.51-8.06c0-4.93,5.2-7.95,11.56-7.95
		c7.05,0,12.19,3.02,12.19,7.85C158.01,49.51,152.76,52.32,145.76,52.32z"/>
	<path class="st0" d="M16.38,18.78c-5.42,1.69-9.77,4.59-16.1,6.58C0.1,25.42-0.02,25.48,0,25.59c0.02,0.14,0.18,0.14,0.33,0.13
		c8.17-0.16,17.34,1.66,24.3,0.45c11.75-2.03,9.93-7.41,27.19-10.6l3.85-0.67c0.18-0.03,0.37-0.06,0.34-0.22c0,0-0.02-0.1-0.28-0.16
		l-3.98-0.93c-0.42-1.28-1.89-1.96-4.01-1.58c-4.33,0.8-7.63,4.91-12.94,4.37C33.69,9.98,27.11,5.84,18.91,4.78
		C8.51,3.46,5.06,2.17,2.5,0.73c-0.3-0.16-0.49-0.34-0.75-0.3C1.54,0.47,1.42,0.76,1.5,1.17C2.42,6.5,14.93,10.41,16.38,18.78"/>
	<path class="st0" d="M46.04,21.7c-0.1,0.03-0.19,0.08-0.17,0.15c0.02,0.09,0.08,0.12,0.19,0.13c3.62,0.13,8.83-0.26,13.75-1.11
		c16.81-2.9,12.34-8.24,28.62-11.05l3.4-0.59c0.18-0.03,0.37-0.07,0.36-0.17c-0.02-0.1-0.22-0.12-0.35-0.16L89.3,8.26
		c-0.31-1.09-1.57-1.52-3.21-1.24c-3.29,0.57-5.28,2.95-10.12,2.33c-1.8-3.56-7.13-5.93-12.9-6.6c-6.7-0.78-10.6-1.45-14.79-2.93
		c-0.12-0.03-0.25-0.12-0.41-0.09c-0.22,0.04-0.29,0.26-0.26,0.47C48.5,5.3,58.68,7.32,59.68,13.11c3.01-0.4,5.13-2.71,7.98-3.2
		c1.67-0.29,2.84,0.09,3.29,1.3l3.13,0.71c0.13,0.03,0.32,0.05,0.34,0.16c0.02,0.1-0.04,0.17-0.28,0.21l-3.87,0.67
		c-4.6,0.79-8.63,2.36-13.49,4.87C53.65,19.46,49.61,20.88,46.04,21.7"/>
</g>
</svg>
