<?xml version="1.0" encoding="utf-8"?>
<!-- Generator: Adobe Illustrator 25.4.1, SVG Export Plug-In . SVG Version: 6.00 Build 0)  -->
<svg version="1.1" id="Layer_1" xmlns="http://www.w3.org/2000/svg" xmlns:xlink="http://www.w3.org/1999/xlink" x="0px" y="0px"
	 viewBox="0 0 561.47 396.07" style="enable-background:new 0 0 561.47 396.07;" xml:space="preserve">
<style type="text/css">
	.st0{fill:#FFFFFF;}
</style>
<g>
	<path class="st0" d="M287.84,73.79c3.84-0.73,7.63-4.12,10.54,1.34c2.35-1.09,4.54-2.11,6.76-3.15c0.18-3.9,0.17-7.39,0.56-10.84
		c0.37-3.26,0.57-6.77,4.64-8.51c0-3.19,0.1-6.34-0.02-9.48c-0.18-4.54,1.69-7.7,5.96-9.31c3.11-1.17,6.22-2.42,9.43-3.26
		c5.67-1.47,8.65,0.95,8.69,6.77c0.02,2.15,0,4.3,0,6.71c4.55,1.09,5.12,4.57,5.05,8.45c-0.06,3.13-0.01,6.27-0.01,10.17
		c2.6-0.78,4.73-1.52,6.91-2.06c2.57-0.63,5.17-1.39,7.78-1.54c4.1-0.23,5.9,1.32,6.2,5.44c0.25,3.47,0.05,6.99-0.29,10.46
		c-0.36,3.56-2.38,6.15-5.69,7.63c-2.58,1.16-5.2,2.24-7.75,3.45c-2.28,1.09-3.98,2.54-2.39,5.64c4.75-1.03,8.59-5.34,13.98-4.12
		c3.33,4.35,1.4,9.29,1.56,14.55c2.73-0.9,5.01-1.69,7.32-2.41c4.66-1.44,6.62-0.31,7.1,4.53c0.31,3.13,0.37,6.35,0.03,9.48
		c-0.57,5.1-3.59,8.33-8.46,10.1c-9.7,3.53-19.34,7.21-28.97,10.91c-9.57,3.67-9.56,3.72-9.59,13.88
		c-0.03,6.83-0.05,13.66-0.02,20.49c0.01,1.78,0.19,3.56,0.33,5.98c2.69-0.16,5.06,0.09,7.18-0.51
		c11.13-3.14,21.83-7.18,30.39-15.45c0.88-0.85,2.17-1.27,3.21-1.86c1.83,2.05,0.63,3.36-0.32,4.71c-2.95,4.2-7.06,7.07-11.44,9.47
		c-8.5,4.66-17.31,8.55-27.05,9.89c-0.46,0.06-0.89,0.4-1.75,0.8c-0.16,1.25-0.28,2.7-0.55,4.12c-0.49,2.64-2.03,3.99-4.36,3.87
		c-2.5-0.12-3.43-1.64-3.51-3.97c-0.04-1.12-0.26-2.24-0.44-3.73c-1.98-0.09-3.77-0.24-5.56-0.25c-12.58-0.1-24.79-2.35-36.83-5.89
		c-6.22-1.83-12.55-3.33-18.85-4.87c-1.41-0.34-2.92-0.25-4.96-0.39c-1.15,8.36,0.33,16.52-0.82,25.27
		c-2.15-0.09-4.09-0.18-6.46-0.28c0-8.78,0-16.89,0-25.05c-1.13-0.41-1.87-0.86-2.64-0.92c-15.07-1.25-28.18,3.56-39.78,12.97
		c-0.9,0.73-1.65,1.92-2.67,2.2c-1.46,0.4-3.36,0.71-4.58,0.09c-1.83-0.93-1.97-3.09-1.01-4.84c0.69-1.27,1.8-2.37,2.92-3.32
		c11.47-9.84,24.99-14.25,39.89-14.95c1.99-0.09,3.99-0.08,5.99-0.15c0.31-0.01,0.61-0.23,1.64-0.65
		c0.47-6.72,0.22-13.75,0.07-21.68c-2.25,0.86-3.82,1.24-5.17,2.01c-10.12,5.76-20.23,11.54-30.27,17.45
		c-4.01,2.36-7.76,5.15-11.76,7.54c-3.73,2.23-6.32,1.78-8.41-1.97c-3.15-5.63-3.69-11.14,1.96-15.09
		c7.63-5.34,15.32-10.6,23.11-15.71c4.59-3.01,9.45-5.61,14.09-8.53c2.4-1.51,2.31-1.65,1.17-5.34c-2.24,1.06-4.53,1.9-6.57,3.14
		c-5.12,3.12-10.13,6.42-15.19,9.64c-0.98,0.62-1.95,1.32-3.01,1.75c-3.24,1.3-5.21,0.5-6.01-2.94c-1.3-5.59-2.39-11.3,3.42-15.38
		c3.94-2.77,2.82-6.62,2.5-10.25c-0.57-0.25-0.89-0.53-1.15-0.49c-6.02,0.89-7.04,0.2-8.1-5.61c-0.15-0.82-0.22-1.65-0.36-2.47
		c-1.26-6.91,0.81-11.95,7.65-14.85c3.49-1.48,6.57-3.91,9.98-5.64c2.65-1.34,3.5-3.22,3.16-6.06c-0.88-7.51-0.09-8.79,6.61-11.88
		c1.66-0.77,3.24-1.69,4.82-2.62c1.5-0.89,2.03-2.13,0.81-4.12c-3.25,0.72-6.63,1.47-9.79,2.17c-4.66-7.28-2.91-17.3,3.36-21.92
		c3.08-2.27,6.11-4.63,9.31-6.71c2.19-1.42,3.14-3.11,3.12-5.75c-0.07-12.85,1.34-11.8,10.76-16.42c2.54-1.24,5.14-2.4,7.82-3.29
		c3.38-1.12,5.05,0.12,5.22,3.75c0.13,2.95,0.03,5.91,0.03,9.21c0.68-0.1,1.45-0.12,2.17-0.33c4.42-1.26,5.89-0.6,6.82,3.71
		c0.63,2.91,0.93,5.92,0.99,8.9c0.08,3.86-1.18,7.13-4.9,9.15c-1.61,0.88-3.76,1.89-2.31,5.06c3.14-1.3,6.25-2.58,9.27-3.82
		c4.59,4.07,1.91,9.04,2.49,13.8c4.3-1.65,8.27-3.19,12.26-4.69c1.09-0.41,2.19-0.85,3.32-1.04c3.95-0.67,6,0.41,7.46,4.13
		c1.89,4.82,1.7,9.78,0.64,14.75c-0.68,3.22-3.36,4.35-5.97,5.52C288.48,69.43,286.65,70.51,287.84,73.79z M251.72,162.57
		c2.12,0.64,3.82,1.19,5.55,1.68c6.55,1.84,13.2,3.36,19.63,5.55c12.38,4.23,25.12,6.22,38.09,7.02c1.54,0.1,3.12-0.49,4.47-0.73
		c1.34-7.1,1.07-29.23-0.37-32.7c-5,2.61-9.9,5.38-14.97,7.77c-9.46,4.46-19.01,8.76-28.57,13.02c-2.76,1.23-5.68,1.9-8.66-0.06
		c-1.76-5.72-2.66-11.57-2.64-17.6c0.01-2.86,0.67-5.04,3.09-6.88c3.23-2.45,3.47-5.15,1.21-9.36c-5.38,0.86-10.34,2.95-14.78,6.28
		c-0.7,0.53-1.22,1.62-1.36,2.53C251.29,146.66,251.14,154.27,251.72,162.57z"/>
	<path class="st0" d="M348.16,263.24c2.9-14.76,5.79-29.51,8.77-44.69c4.6-0.55,9.27-0.55,14.25,0.02
		c-1.48,6.41-2.8,12.2-4.17,17.99c-4.12,17.48-8.26,34.95-12.38,52.43c-1.11,4.72-1.81,5.22-7.43,5.19
		c-5.25-0.03-5.71-0.51-6.96-5.1c-2.89-10.58-5.94-21.12-8.91-31.68c-0.76-2.7-1.46-5.42-2.98-8.19c-1.54,6.07-3.12,12.13-4.6,18.21
		c-1.85,7.59-3.68,15.19-5.4,22.81c-0.56,2.49-1.88,3.82-4.41,3.9c-1.5,0.05-3-0.02-4.5,0.03c-2.83,0.08-4.26-1.5-4.87-4.06
		c-4.42-18.43-8.81-36.88-13.26-55.3c-1.24-5.14-2.69-10.23-4.19-15.92c5.14-1.22,10-0.58,14.89-0.48
		c3.01,15.05,5.97,29.79,8.92,44.54c0.25,0.05,0.49,0.1,0.74,0.14c0.9-3.17,1.86-6.32,2.69-9.5c2.57-9.99,5.08-20,7.64-30
		c1.32-5.18,1.85-5.58,7.12-5.39c1.14,0.04,2.28,0.28,4.04,0.51C338.64,233.13,341.96,248.41,348.16,263.24z"/>
	<path class="st0" d="M235.99,246.24c0,16.42,0,31.69,0,47.48c-4.64,0.77-9.33,0.58-14.39,0.11c0-25.23,0-50.09,0-75.62
		c3.8,0,7.45-0.34,10.98,0.16c1.44,0.2,2.95,2.01,3.86,3.44c4.9,7.73,9.62,15.57,14.39,23.37c3.87,6.32,7.73,12.64,12.38,18.69
		c0-14.93,0-29.85,0-45.26c4.99-0.88,9.68-0.61,14.58-0.27c0,25.15,0,49.89,0,75.02c-3.66,1.38-7.62,1.03-11.44,0.31
		c-1.32-0.25-2.6-1.98-3.42-3.32c-7.83-12.76-15.56-25.58-23.33-38.38C238.59,250.31,237.52,248.67,235.99,246.24z"/>
	<path class="st0" d="M0,218.76c1.17-0.26,2.11-0.64,3.06-0.64c9.99-0.03,19.99-0.25,29.97,0.09c9.46,0.33,16.58,4.84,20.17,13.81
		c2.94,7.35,3.2,15.16,0.2,22.41c-1.69,4.09-5.39,7.35-8.81,11.8c3.7,8.14,7.85,17.29,12.31,27.1c-5.4,1.27-10.17,1.45-14.7,0.05
		c-1.65-0.51-3.04-2.93-3.87-4.79c-2.87-6.36-5.43-12.85-8.13-19.29c-0.25-0.6-0.62-1.15-1.08-2c-4.55,0-9.13,0-14.32,0
		c-0.39,8.75-0.3,17.29,0.29,26.23C9.72,294.48,4.92,294.5,0,293.61C0,268.55,0,243.96,0,218.76z M14.85,255.01
		c5.08,0,9.7-0.28,14.28,0.08c4.72,0.36,10.64-4.88,11.43-9.97c0.87-5.62-1.8-11.1-7.01-13.43c-3.82-1.71-14.02-1.88-18.69-0.22
		C14.85,238.95,14.85,246.52,14.85,255.01z"/>
	<path class="st0" d="M505.95,293.51c0.08-12.69,0.18-25.11,0.22-37.54c0.04-12.27,0.01-24.54,0.01-37.36
		c0.68-0.11,1.92-0.49,3.16-0.5c8.65-0.04,17.31-0.16,25.96,0.04c12.76,0.3,21.76,6.87,25.17,18.22c0.61,2.04,0.87,4.24,0.9,6.37
		c0.11,8.15-0.03,16.31,0.09,24.46c0.2,13.96-8.06,25.7-24.94,26.8c-9.45,0.62-18.96,0.16-28.45,0.12
		C507.3,294.14,506.54,293.7,505.95,293.51z M520.65,280.92c6.02,0,11.48,0.18,16.91-0.11c1.66-0.09,3.4-1.3,4.86-2.34
		c3.44-2.45,4.4-6.43,4.58-10.16c0.4-8.3,0.39-16.65,0.02-24.96c-0.18-3.97-1.5-7.96-5.42-10.16c-6.61-3.7-13.63-3.12-20.95-2.32
		C520.65,247.69,520.65,263.95,520.65,280.92z"/>
	<path class="st0" d="M117.13,219.02c0,4.08,0,7.98,0,12.02c-6.01,0-11.78,0-17.55,0c-5.8,0-11.59,0-17.84,0c0,6.1,0,11.65,0,17.8
		c10.39,0.72,20.82,0,31.49,0.38c1.56,4.12,1.18,8.12,0.27,12.72c-10.51,0-20.91,0-31.9,0c-0.57,6.44-0.23,12.34-0.23,19
		c12.04,0.5,23.74,0.31,35.78,0.01c0,4.17,0,8.22,0,12.73c-1.89,0.19-3.49,0.49-5.1,0.5c-12.99,0.05-25.98,0.07-38.97,0.04
		c-5.81-0.02-6.59-0.84-6.6-6.71c-0.02-20.99-0.02-41.97,0-62.96c0.01-5.07,0.87-6.18,5.57-6.23c13.82-0.13,27.65-0.09,41.47-0.06
		C114.62,218.25,115.72,218.7,117.13,219.02z"/>
	<path class="st0" d="M497.43,258.37c-0.52,4.3-0.84,10.64-2.14,16.78c-2.25,10.72-9.55,17.11-19.9,19.31
		c-11.03,2.35-21.11,0.06-29.05-8.83c-3.88-4.35-5.66-9.56-5.76-15.05c-0.2-10.94-0.1-21.92,0.57-32.84
		c0.6-9.87,7.06-15.92,15.62-19.58c10.67-4.56,27.74-3.2,35.82,10.99c2.07,3.63,3.04,8.07,3.72,12.27
		C497.11,246.33,497.02,251.37,497.43,258.37z M454.05,255.52c0.41,5.56,0.48,10.9,1.26,16.13c1.02,6.85,3.91,9.63,10.56,10.69
		c6.04,0.96,15.4-2.19,15.5-10.82c0.1-8.46,0.71-16.91,0.9-25.38c0.05-2.46-0.35-4.98-0.92-7.38c-1.79-7.55-8.08-11.41-15.84-9.92
		c-6.17,1.19-9.22,3.9-10.11,10.04C454.62,244.46,454.47,250.12,454.05,255.52z"/>
	<path class="st0" d="M181.45,264.18c0-4.36,0-7.79,0-11.15c3.52-1.45,21.66-1.76,27.18-0.52c0.19,0.25,0.54,0.51,0.56,0.78
		c0.84,10.68,1.37,21.32-4.6,30.98c-4.16,6.73-10.34,10.17-18.12,10.83c-8.14,0.69-15.92,0.03-22.74-5.32
		c-5.27-4.12-8.57-9.3-9.41-15.88c-1.57-12.28-1.76-24.62,0.13-36.85c1.62-10.49,8.73-16.75,18.45-19.61
		c8.55-2.51,17.16-1.83,25.1,2.82c5.95,3.49,9.17,9.03,11.22,15.35c0.37,1.15,0.05,2.53,0.05,4.23c-4.32,0-8.21,0-12.33,0
		c-0.39-0.67-0.92-1.33-1.19-2.07c-3.03-8.33-10.03-9.42-15.55-8.66c-6.52,0.91-11.62,6.07-11.88,12.83
		c-0.36,9.29-0.53,18.64,0.07,27.9c0.65,9.92,10.06,15.42,19.18,11.97c4.37-1.65,6.57-5.12,7.53-9.28c0.57-2.48,0.11-5.19,0.11-8.38
		C190.58,264.18,186.35,264.18,181.45,264.18z"/>
	<path class="st0" d="M432.03,255.77c-0.62,6.45-0.72,12.99-1.96,19.31c-2.07,10.55-9.17,17-19.35,19.29
		c-10.6,2.38-20.51,0.57-28.52-7.71c-4.67-4.83-6.78-10.68-6.97-17.17c-0.25-8.64,0.03-17.29-0.12-25.93
		c-0.3-17.29,13.93-29.5,31.84-27.43c14.13,1.64,23.38,11.67,24.31,26.6c0.27,4.31,0.04,8.66,0.04,12.99
		C431.54,255.73,431.78,255.75,432.03,255.77z M417.65,253.53c-0.53-4.89-1-10.35-1.75-15.77c-0.46-3.32-2.31-5.99-5.42-7.31
		c-3.72-1.57-7.64-2.18-11.72-1.25c-4.53,1.03-7.58,3.57-8.23,8.23c-0.67,4.76-1.28,9.57-1.28,14.36c-0.01,6.8,0.47,13.61,0.91,20.4
		c0.46,7.05,5.21,9.8,10.97,10.14c8.34,0.49,14.81-2.53,15.16-11.77C416.49,265.08,417.15,259.63,417.65,253.53z"/>
	<path class="st0" d="M239.38,317.59c-0.43,4.86-0.85,9.57-1.27,14.28c0.34,0.17,0.67,0.33,1.01,0.5c1.48-1.36,2.97-2.71,4.88-4.47
		c2.74,1.79,5.56,3.64,8.69,5.69c-3.55,6.25-9.62,2.27-13.98,4.61c0,1.96,0,4.05,0,6.34c1.59,0.7,3.14,1.27,4.58,2.04
		c2.89,1.54,5.25,3.57,5.63,7.12c0.3,2.74-1.03,4.92-3.29,5.42c-2.3,0.5-4.48-0.83-5.31-3.45c-0.54-1.7-0.82-3.49-1.7-5.17
		c0,13.86,0,27.71,0,42.13c12.99-7.76,20.98-19.22,27.75-31.94c3.77,0.77,6.45,2.74,8.99,5.17c-7.15,8.63-13.9,17.26-23.56,22.91
		c-2.44,1.43-4.82,2.97-7.35,4.23c-4.55,2.28-9.43,2.23-14.8,2.06c-1.07-10.45-0.05-20.57-0.62-31.08
		c-4.12,4.91-7.99,9.52-12.5,14.88c0,2.48,0.02,5.97-0.01,9.46c-0.05,6.32-2.11,7.83-9.15,6.06c-0.38-10.61,0-21.47-0.8-32.54
		c-3.66,4.86-6.63,10.1-11.8,13.58c4.25-12.2,9.59-23.92,11.35-37.05c-1.52-0.36-2.59-0.7-3.69-0.84c-0.97-0.12-1.97-0.03-3.38-0.03
		c-0.46-1.26-0.93-2.54-1.58-4.29c3.37-0.29,6.11-0.53,9.53-0.83c0-5.26,0-10.32,0-15.3c4.09-1.77,7.33-0.86,10.81,0.35
		c-0.45,2.64-1.02,5.04-1.24,7.48c-0.21,2.29-0.04,4.6-0.04,6.96c4.16,1.54,7.89,0.97,12.39,0.52c0.16-5.26,0.32-10.46,0.48-15.51
		C234.21,315.71,235.72,315.86,239.38,317.59z M216.94,347.51c0,8.9,0,16.89,0,24.88c4.16-5.35,6.98-11.12,8.67-17.5
		C220,354.47,220.47,356.73,216.94,347.51z M227.54,347.34c1.96-5.05,1.98-5.26,0.61-9.77c-3.73,0.21-7.71-1.16-12.11,1.28
		C220.23,341.94,223.75,344.54,227.54,347.34z"/>
	<path class="st0" d="M338.29,323.97c4.9,0,9.24,0.4,13.44-0.17c2.01-0.27,3.78-2.39,6.11-3.98c2.55,1.83,5.15,3.7,7.62,5.48
		c-0.89,3.7-3.29,3.87-5.62,3.9c-5.16,0.08-10.33,0.03-15.49,0.04c-1.79,0-3.58,0-5.75,0c0,2.13,0,3.65,0,5.73
		c4.26,0,8.27,0.42,12.13-0.17c2.02-0.31,3.77-2.4,5.91-3.87c3.3,1.14,6.34,2.82,8.51,5.93c-1.58,3.02-4.06,3.26-6.57,3.28
		c-4.66,0.04-9.33,0-13.99,0c-1.81,0-3.61,0-5.95,0c-0.15,1.96-0.26,3.48-0.41,5.43c4.92,0,9.34,0,13.9,0
		c1.35-1.29,2.78-2.66,4.63-4.43c2.82,1.96,5.58,3.87,8.34,5.78c-1.31,3.42-3.54,4.15-6.19,4.16c-4.83,0.01-9.66-0.01-14.49-0.02
		c-1.8,0-3.6,0-5.7,0c-0.17,1.75-0.29,2.98-0.48,4.97c4.62,0.11,8.92,0.62,13.1,0.13c2.03-0.23,3.84-2.33,6.36-3.97
		c2.34,1.59,5.02,3.41,7.51,5.09c0.01,3.4-2.03,4.18-4.21,4.59c-1.45,0.28-2.99,0.17-4.48,0.18c-13.99,0.01-27.99,0-41.98,0
		c-2.65,0-5.05,0.07-7.46,1.93c-1.54,1.19-4.28,0.84-6.84,1.24c-1.68-8.24,0.06-15.94-1.24-23.9c-2.87,1.58-5.48,3.01-9.06,4.98
		c6.13-11,11.63-20.86,17.37-31.15c3.56-0.68,6.02,2.63,10.1,3.57c-1.61,1.83-2.63,2.99-4.02,4.57c4.91,1.54,9.44,0.53,14.36,0.77
		c0.33-2.9,0.63-5.46,0.93-8.15c3.43-1.58,6.56-0.21,10.27,0.52C338.75,318.67,338.56,320.84,338.29,323.97z M309.25,345.62
		c6.62,0,12.48,0,18.6,0c0-1.85,0-3.37,0-5.14c-6.23,0-12.09,0-18.33,0C309.44,342.2,309.36,343.6,309.25,345.62z M310.76,329.47
		c-0.43,1.23-0.8,1.99-0.95,2.79c-0.13,0.74-0.03,1.52-0.03,2.42c6.21,0,12.07,0,18.41,0c-0.12-1.95-0.21-3.48-0.32-5.2
		C321.94,329.47,316.52,329.47,310.76,329.47z M328.14,355.96c-0.15-1.87-0.25-3.22-0.38-4.85c-6.39,0.05-12.27-0.35-18.53,0.27
		c0.2,1.85,0.33,3.07,0.5,4.58C315.8,355.96,321.54,355.96,328.14,355.96z"/>
	<path class="st0" d="M446.89,394.66c-0.45-1.22-0.94-2.58-1.51-4.12c-16.01,0-31.95,0-47.85,0c-3.36,5.02-3.88,5.25-9.29,4.18
		c-1.31-3.62-1.52-73.15-0.12-78.43c3.57,0.55,7.41-0.15,10.48,2.88c0.61,0.61,1.79,0.9,2.71,0.9c14.65,0.05,29.3,0.04,43.94,0.04
		c1.54-1.45,2.96-2.78,4.79-4.51c2.9,1.98,5.68,3.87,8.97,6.12c-3.73,2.94-3.69,6.37-3.67,9.92c0.08,17.99,0.03,35.98,0.03,53.97
		c0,1,0.02,2,0,3C455.29,394.59,453.49,395.93,446.89,394.66z M396.84,325.64c0,20.03,0,39.42,0,58.74
		c6.12,1.25,45.53,0.93,48.92-0.32c1.03-9.13,0.56-54.73-0.68-58.42C429.24,325.64,413.32,325.64,396.84,325.64z"/>
	<path class="st0" d="M174.68,328.08c-8.13,3.87-15.45,7.36-22.66,10.79c-0.25,0.68-0.6,1.15-0.56,1.59
		c0.28,3.29-1.97,7.81,2.07,9.46c4.75,1.94,10.27,2.25,14.91-0.64c1.87-1.16,2.7-4.02,3.96-6.14c0.96-1.62,1.83-3.29,2.74-4.94
		c0.31,0.13,0.62,0.26,0.93,0.39c-0.07,0.92-0.03,1.87-0.22,2.76c-0.55,2.57-0.17,4.86,1.25,7.15c1.91,3.08,1.67,3.88-0.92,6.42
		c-3.17,3.11-7.15,4.26-11.39,4.29c-5.78,0.04-11.57-0.29-17.65-0.47c-2.34,2.98-2.35,3.05-1.01,8.19c5.63,0,11.41,0.1,17.19-0.09
		c1.12-0.04,2.31-1.08,3.29-1.88c0.99-0.81,1.75-1.89,2.98-3.27c3.13,2.18,6.05,4.21,8.86,6.17c-0.18,3.92-2.51,4.44-5.18,4.45
		c-7.33,0.03-14.66,0-21.98,0.03c-1.79,0.01-3.58,0.15-6.11,0.27c0,3.81,0,7.24,0,10.68c0,1.67,0.03,3.33,0,5
		c-0.14,6.47-1.79,7.74-8.94,6.41c-1.8-6.92,0.09-14.31-1.23-22.17c-9.18-0.51-18.45,0.11-27.97-0.31
		c-0.52-1.53-0.97-2.85-1.67-4.94c10.13-0.74,19.72,0.1,29.7-0.54c0.16-1.84,0.3-3.43,0.44-5.03c0.14-1.61,0.29-3.22,0.47-5.15
		c3,0,5.58,0,7.68,0c-0.67-4.58-1.34-9.2-2.04-14.01c-3.65-1.06-7.06,2.9-11.83,0.43c4.43-2.41,8.21-4.47,12.33-6.71
		c0-6.56,0-12.99,0-19.45c3.71-1.5,6.8-0.97,9.78,0.31c-0.24,4.49-0.47,8.72-0.7,12.96c0.33,0.22,0.66,0.45,1,0.67
		c5.24-3.6,10.49-7.2,15.82-10.86C171.45,321.7,172.75,324.87,174.68,328.08z"/>
	<path class="st0" d="M127.54,293.42c0-24.79,0-49.66,0-74.94c4.76,0,9.32,0,14.32,0c0,25.02,0,49.88,0,74.74
		C138.25,294.59,132.55,294.7,127.54,293.42z"/>
	<path class="st0" d="M325.37,376.28c-16.19,11.94-26.39,16.98-34.61,17.3c-0.1-2.18,1.77-2.59,3.07-3.36
		c6.46-3.86,12.55-8.18,17.68-13.74c0.67-0.72,1.28-1.49,2.67-3.12c-5.04,0-9.24,0-13.44,0c-1.5,0-3,0.01-4.5-0.03
		c-2.21-0.05-3.36-1.18-3.4-3.98c5-1.84,10.32-0.49,15.46-0.82c5.28-0.34,10.6-0.07,15.97-0.07c0.6-1.88,1.04-3.26,1.56-4.87
		c3.17-1.07,6.34-0.62,9.82,0.62c-0.08,1.25-0.17,2.46-0.26,3.92c3.63,0.22,7.09,0.56,10.56,0.63c7.21,0.13,7.21,0.07,13.46-4.72
		c2.63,1.8,5.4,3.7,8.24,5.65c-1.53,3.47-3.98,3.66-6.5,3.67c-7.15,0.01-14.31,0-22.3,0c4.55,4.31,9.53,6.37,14.51,8.17
		c4.95,1.8,10.15,2.91,15.78,4.48c-2.79,2.83-5.46,5.54-8.65,8.76c-10.11-2.9-17.87-9.97-25.5-18.48c-0.27,1.65-0.57,2.65-0.59,3.67
		c-0.07,3.16,0,6.33-0.04,9.49c-0.07,6.44-2,7.79-8.98,5.75C325.37,389.32,325.37,383.24,325.37,376.28z"/>
	<path class="st0" d="M123.09,314.33c3.54,2.1,6.31,3.74,9.4,5.57c-2.49,3.1-4.62,5.76-6.79,8.47c0.25,1.13,0.84,2.16,0.62,2.98
		c-1.91,7.03-0.74,14.19-1,21.28c-0.23,6.41-1.74,7.57-9.16,5.86c-0.1-5.47-0.2-11.13-0.31-17.21c-4.95,1.93-7.18,6.71-12.46,8.08
		c1.19-4.87,4.58-7.73,6.54-11.38c2.12-3.94,4.63-7.67,6.82-11.58C118.83,322.69,120.72,318.86,123.09,314.33z"/>
	<path class="st0" d="M263.46,340.64c3,1.99,5.55,3.68,8.39,5.55c-9.14,10.5-17.66,20.7-30.92,25.27c1.65-3.86,5.16-6.14,7.61-9.28
		c2.65-3.41,5.34-6.8,7.8-10.34C258.7,348.45,260.79,344.87,263.46,340.64z"/>
	<path class="st0" d="M247.83,345.66c4.65-9.33,9.31-18.67,14.14-28.36c3.35-0.09,5.95,2.34,9.16,3.65
		c-6.32,9.99-12.21,19.72-22.43,25.41C248.41,346.13,248.12,345.9,247.83,345.66z"/>
	<path class="st0" d="M400.96,344.33c-0.67-1.85-1.1-3.03-1.8-4.97c8.32-1.01,16.26,0.13,24.51-0.67c0.25-3.71,0.49-7.11,0.76-11.1
		c3.6,0.23,6.95,0.44,10.81,0.69c-0.72,2.58-1.26,4.55-1.95,7.03c5.23-1.29,7.66,2.56,11.15,4.8c-1.61,6.05-7.08,2.93-10.77,4.79
		c-0.08,1.66-0.23,3.44-0.23,5.22c-0.03,7.83,0.05,15.66-0.03,23.48c-0.07,6.18-3.49,8.98-9.12,8.56c-3.37-2.88-6.16-5.26-9.22-7.88
		c2.08-2.29,5.64,0,8.75-2.41c0.65-6.1,0.12-12.86-0.18-19.86c-6.47,10.83-13.28,21.25-24.34,27.88c-1.79-1.59-0.36-2.5,0.29-3.54
		c4.15-6.61,8.52-13.1,12.35-19.89c1.99-3.53,3.85-7.33,4.04-12.14C410.96,344.33,406.19,344.33,400.96,344.33z"/>
</g>
</svg>
