<?xml version="1.0" encoding="utf-8"?>
<!-- Generator: Adobe Illustrator 25.4.1, SVG Export Plug-In . SVG Version: 6.00 Build 0)  -->
<svg version="1.1" id="Layer_1" xmlns="http://www.w3.org/2000/svg" xmlns:xlink="http://www.w3.org/1999/xlink" x="0px" y="0px"
	 viewBox="0 0 187.09 152.33" style="enable-background:new 0 0 187.09 152.33;" xml:space="preserve">
<style type="text/css">
	.st0{fill-rule:evenodd;clip-rule:evenodd;fill:#FFFFFF;}
</style>
<path class="st0" d="M176.07,149.64v-6.8c0-3.75-2.23-2.7-2.23-3.4c0-0.12,0.12-0.12,0.23-0.12h0.94h0.82
	c0.12,0,0.35,0.23,0.47,0.35l8.67,9.73c0.12,0.12,0.12,0.24,0.23,0.24v-0.24v-7.62c0-2.46-1.99-1.76-1.99-2.34
	c0-0.12,0.12-0.12,0.23-0.12h1.64h1.76c0.12,0,0.23,0,0.23,0.12c0,0.47-1.05,0.12-1.05,1.52v10.55c0,0.47,0,0.7-0.23,0.7
	c-0.12,0-0.23,0-0.59-0.47l-7.85-8.79c-0.12-0.12-0.24-0.35-0.47-0.35c0,0-0.12,0-0.12,0.35v7.5c0,1.64,1.64,1.06,1.64,1.53
	c0,0.12,0,0.23-0.23,0.23c-0.35,0-0.94-0.12-1.76-0.12c-0.7,0-1.64,0.12-1.76,0.12c-0.23,0-0.23-0.12-0.23-0.23
	C174.43,151.4,176.07,152.1,176.07,149.64L176.07,149.64z M166.34,152.33c-3.87,0-6.33-2.81-6.33-6.68c0-3.75,2.93-6.56,6.68-6.56
	c3.75,0,6.56,2.7,6.56,6.45C173.25,149.64,170.44,152.33,166.34,152.33L166.34,152.33z M166.1,139.67c-3.05,0-4.81,2.58-4.81,5.51
	c0,3.28,2.23,6.56,5.86,6.56c2.7,0,4.81-2.11,4.81-5.51C171.96,142.96,169.74,139.67,166.1,139.67L166.1,139.67z M152.74,150.58
	v-9.5c0-0.12,0-0.82-0.23-0.82h-2.93c-1.17,0-1.17,0.35-1.52,1.29c0,0.23,0,0.47-0.24,0.47c-0.12,0-0.23-0.12-0.23-0.23l0.23-1.76
	c0-0.23,0-0.7,0.24-0.7h5.27h5.27c0.47,0,0.47,0.12,0.59,0.47v1.52c0.12,0.12,0.12,0.35-0.12,0.35c-0.7,0,0.23-1.41-1.64-1.41h-2.58
	c-0.82,0-0.7,0-0.7,0.94v9.26c0,1.53,1.52,0.94,1.52,1.53c0,0,0,0.23-0.23,0.23c-0.35,0-0.94-0.12-1.41-0.12
	c-2.11,0-2.46,0.12-2.58,0.12c-0.12,0-0.12-0.12-0.12-0.23C151.33,151.51,152.74,151.75,152.74,150.58L152.74,150.58z
	 M142.42,141.08v8.91c0,1.05-0.12,1.52,1.41,1.52c4.22,0,4.81-1.88,5.04-1.88c0.12,0,0.12,0.12,0.12,0.12c0,0.7-0.47,1.29-0.94,1.76
	c-0.59,0.7-0.94,0.7-1.76,0.7c-1.41,0-2.81-0.12-4.1-0.12c-0.82,0-1.52,0.12-2.23,0.12c-0.23,0-0.35-0.12-0.35-0.23
	c0.12-0.23,0.23-0.12,0.82-0.47c0.47-0.23,0.59-0.7,0.59-1.52v-9.26c0-0.94-1.52-0.82-1.52-1.17c0-0.23,0.12-0.23,0.35-0.23h1.76
	h1.76c0.23,0,0.35,0,0.35,0.23C143.71,139.91,142.42,139.56,142.42,141.08L142.42,141.08z M133.63,145.54l3.05,4.69
	c1.41,1.99,2.23,1.29,2.23,1.76c0,0.23-1.06,0.23-1.17,0.23c-1.29,0-1.99-0.94-2.7-1.99l-2.11-3.16c-0.59-1.05-0.35-0.94-2.34-0.94
	c-0.59,0-0.47,0.24-0.47,0.47v3.87c0,1.53,1.88,0.94,1.88,1.64c0,0.12-0.12,0.12-0.35,0.12c-0.12,0-0.58-0.12-2.11-0.12
	c-0.59,0-1.29,0.12-1.99,0.12c-0.12,0-0.23-0.12-0.23-0.23c0-0.47,1.41-0.23,1.41-1.53v-9.38c0-1.76-1.64-0.94-1.64-1.52
	c0-0.12,0.12-0.23,0.35-0.23h1.17h3.05c0.35,0,4.34-0.35,4.34,3.16C135.98,143.89,134.92,145.07,133.63,145.54L133.63,145.54z
	 M130.12,140.61v4.57c0,0.35,1.05,0.23,1.99,0.23c0.7,0,2.46-0.35,2.46-2.58c0-2.23-1.64-2.93-3.4-2.93
	C130.47,139.91,130.12,139.91,130.12,140.61L130.12,140.61z M122.73,149.29l-0.59-1.41c-0.23-0.47-0.35-0.7-0.82-0.7h-3.99
	c-0.35,0-0.7,0-0.94,0.35l-1.17,2.58c0,0.12-0.12,0.35-0.12,0.59c0,1.29,1.29,0.7,1.29,1.17c0,0.35-0.24,0.35-0.47,0.35
	c-0.47,0-1.06-0.12-1.52-0.12c-0.47,0-0.94,0.12-1.41,0.12c-0.12,0-0.23-0.12-0.23-0.23c0-0.35,0.94-0.12,1.41-1.06l4.34-9.38
	c1.05-2.23,1.05-2.58,1.29-2.58c0.23,0,0.35,0.59,0.47,0.7l3.75,9.38c0.23,0.7,0.47,1.41,0.94,2.11c0.47,0.82,1.52,0.35,1.52,0.82
	c0,0.23-0.12,0.23-0.23,0.23c-0.7,0-1.41-0.12-2.23-0.12c-0.47,0-0.94,0.12-1.41,0.12c-0.12,0-0.47,0-0.47-0.23
	c0-0.47,1.17-0.23,1.17-0.94C123.32,150.69,122.85,149.87,122.73,149.29L122.73,149.29z M119.21,141.55l-1.99,4.46
	c-0.12,0.23,0,0.35,0.23,0.35h3.63c0.35,0,0.35-0.12,0.24-0.35l-1.76-4.46C119.45,141.31,119.33,141.31,119.21,141.55L119.21,141.55
	z M96.47,144.48c0-4.81,3.4-8.56,8.21-8.56c4.22,0,5.51,1.76,6.1,1.76c0.24,0,0.35-0.23,0.59-0.23c0.24,0,0.24,0.35,0.35,1.76
	c0,1.29,0.23,1.99-0.23,1.99c-0.24,0-0.35-0.58-0.47-0.7c-1.41-2.46-3.05-3.99-5.98-3.99c-4.45,0-6.56,2.93-6.56,7.27
	c0,3.87,2.23,7.86,6.68,7.86c3.52,0,5.74-2.23,6.1-3.28c0-0.12,0.24-0.35,0.35-0.35c0.12,0,0.23,0.23,0.12,0.23l-0.47,2.35
	c0,0.12-1.64,1.76-6.8,1.76C99.87,152.33,96.47,149.17,96.47,144.48L96.47,144.48z M90.5,147.06l3.4-1.29
	c0.35-0.12,0.7-0.23,0.82-0.23c0.23,0,0.23,0.35,0.23,0.58c0,0.82,0,0.71-0.7,0.94l-3.4,1.29c-0.35,0.12-0.59,0.23-0.82,0.23
	c-0.23,0-0.12-0.35-0.12-0.47C89.91,147.29,89.79,147.29,90.5,147.06L90.5,147.06z M87.33,140.14l-6.1,10.31
	c-0.23,0.35-0.23,0.59-0.23,0.7c0,0.12,0.23,0.24,0.7,0.24h3.4c2.34,0,2.23-1.29,2.93-1.29c0.12,0,0.12,0.23,0.12,0.35l-0.7,1.17
	c-0.23,0.47-0.47,0.47-0.82,0.47h-7.5c-0.12,0-0.23-0.12-0.23-0.23s0-0.23,0.12-0.35l6.33-10.79c0.23-0.12,0.35-0.47,0.35-0.47
	c0-0.12-0.12-0.12-0.12-0.12H81.7c-2.46,0-1.87,1.88-2.46,1.88c-0.12,0-0.23-0.12-0.23-0.23l0.23-1.88c0.12-0.47,0.12-0.59,0.7-0.59
	h7.03c0.47,0,0.58,0.12,0.58,0.35C87.56,139.91,87.45,140.03,87.33,140.14L87.33,140.14z M71.74,150.58v-9.5
	c0-0.12,0-0.82-0.23-0.82h-2.93c-1.17,0-1.17,0.35-1.52,1.29c0,0.23-0.12,0.47-0.35,0.47c-0.12,0-0.12-0.12-0.12-0.23l0.12-1.76
	c0.12-0.23,0-0.7,0.35-0.7h5.16h5.39c0.47,0,0.47,0.12,0.47,0.47l0.12,1.52c0,0.12,0.12,0.35-0.12,0.35c-0.7,0,0.23-1.41-1.64-1.41
	h-2.58c-0.82,0-0.7,0-0.7,0.94v9.26c0,1.53,1.41,0.94,1.41,1.53c0,0,0.12,0.23-0.12,0.23c-0.47,0-0.94-0.12-1.52-0.12
	c-1.99,0-2.34,0.12-2.46,0.12c-0.12,0-0.23-0.12-0.23-0.23C70.22,151.51,71.74,151.75,71.74,150.58L71.74,150.58z M62.36,150.22
	v-9.38c0-1.29-1.41-0.94-1.41-1.41c0-0.12,0-0.12,0.12-0.12h1.99h1.76c0.24,0,0.35,0,0.35,0.12c0,0.47-1.41,0-1.41,1.41v9.85
	c0,1.17,1.64,0.82,1.64,1.29c0,0.12,0,0.23-0.35,0.23c-0.35,0-1.17-0.12-1.99-0.12c-1.06,0-1.41,0.12-1.76,0.12
	c-0.23,0-0.35-0.12-0.35-0.35C60.96,151.4,62.36,151.98,62.36,150.22L62.36,150.22z M53.45,144.01l3.75,5.74
	c1.64,2.46,2.81,1.64,2.81,2.23c0,0.23-1.29,0.23-1.52,0.23c-1.64,0-2.58-1.17-3.4-2.46l-2.46-3.98c-0.82-1.29-0.59-1.17-3.05-1.17
	c-0.82,0-0.59,0.35-0.59,0.59v4.81c0,1.99,2.34,1.29,2.34,1.99c0,0.23-0.23,0.23-0.35,0.23c-0.23,0-0.82-0.12-2.7-0.12
	c-0.82,0-1.76,0.12-2.58,0.12c-0.12,0-0.23-0.12-0.23-0.23c0-0.59,1.64-0.23,1.64-1.99v-11.61c0-2.23-1.88-1.29-1.88-1.99
	c0-0.12,0.12-0.35,0.35-0.35c0.47,0,0.35,0.12,1.52,0.12c1.29,0,2.58-0.12,3.75-0.12c0.35,0,5.39-0.47,5.39,3.99
	C56.27,141.78,55.09,143.31,53.45,144.01L53.45,144.01z M49,137.68v5.74c0,0.47,1.41,0.35,2.46,0.35c0.94,0,3.16-0.35,3.16-3.28
	c0-2.7-2.11-3.63-4.34-3.63C49.47,136.86,49,136.74,49,137.68L49,137.68z M32.59,141.2v3.4c0,0.59,0,0.59,0.7,0.59h1.99
	c1.88,0,1.41-1.41,1.76-1.41c0.23,0,0.23,0.12,0.23,0.35v1.76v1.52c0,0.12-0.12,0.23-0.23,0.23c-0.59,0,0.12-1.64-1.41-1.64h-2.7
	c-0.47,0-0.35,0.35-0.35,0.59v3.4c0,1.05-0.12,1.52,1.41,1.52c4.22,0,4.81-1.88,5.04-1.88c0.12,0,0.12,0.12,0.12,0.12
	c0,0.7-0.47,1.29-0.94,1.76c-0.59,0.7-0.94,0.7-1.76,0.7c-1.41,0-2.7-0.12-4.1-0.12c-0.82,0-1.52,0.12-2.23,0.12
	c-0.23,0-0.35-0.12-0.35-0.23c0.12-0.23,0.23-0.12,0.82-0.47c0.47-0.23,0.59-0.7,0.59-1.52v-8.32c0-0.82,0-1.76-1.06-1.88
	c-0.12,0-0.47-0.12-0.47-0.23c0-0.23,0-0.23,0.59-0.23h5.16h2.58c0.12,0,0.24,0.12,0.24,0.35c0,1.99-0.24,2.23-0.35,2.23
	c-0.47,0-0.23-0.94-0.47-1.29c-0.47-0.7-2.34-0.59-3.17-0.59C32.59,140.03,32.59,140.03,32.59,141.2L32.59,141.2z M17,150.22v-9.38
	c0-1.29-1.52-0.94-1.52-1.41c0-0.12,0.12-0.12,0.23-0.12h1.99h1.76c0.23,0,0.35,0.12,0.35,0.12c0,0.35-1.41,0-1.41,1.41v3.98
	c0,0.24,0,0.24,0.35,0.24h6.68c0.12,0,0.12-0.35,0.12-0.47v-3.75c0-1.29-1.41-0.94-1.41-1.41c0-0.12,0.12-0.12,0.35-0.12h1.88h1.29
	c0.47,0,0.59,0.12,0.59,0.23c0,0.35-1.29,0-1.29,1.29v9.61c0,1.41,1.64,1.06,1.64,1.53c0,0,0,0.23-0.12,0.23
	c-0.59,0-1.06-0.12-1.76-0.12c-1.17,0-1.64,0.12-1.99,0.12c-0.23,0-0.47,0-0.47-0.23c0-0.47,1.29-0.23,1.29-1.41v-4.34
	c0-0.23,0.12-0.47-0.12-0.47h-6.8c-0.23,0-0.23,0.12-0.23,0.35v4.57c0,1.17,1.76,0.82,1.76,1.41c0,0-0.12,0.12-0.23,0.12
	c-0.23,0-1.64-0.12-2.58-0.12c-1.29,0-1.52,0.12-1.52,0.12c-0.12,0-0.23-0.12-0.23-0.35C15.59,151.4,17,151.98,17,150.22L17,150.22z
	 M6.45,150.22v-11.84c0-0.12,0.12-1.05-0.23-1.05H2.46c-1.41,0-1.41,0.35-1.88,1.64c0,0.23-0.12,0.47-0.35,0.47
	c-0.12,0-0.23-0.12-0.23-0.24l0.23-2.23c0-0.23,0-0.94,0.47-0.94c1.76,0,3.52,0.12,6.45,0.12c4.1,0,6.21-0.12,6.68-0.12
	c0.47,0,0.59,0.23,0.59,0.7l0.12,1.88c0.12,0.12,0.12,0.47-0.23,0.47c-0.82,0,0.35-1.76-1.88-1.76H9.14c-1.06,0-0.94-0.12-0.94,1.17
	v11.61c0,1.88,1.88,1.17,1.88,1.88c0,0,0,0.23-0.23,0.23c-0.59,0-1.17-0.12-1.88-0.12c-2.46,0-2.93,0.12-3.05,0.12
	c-0.23,0-0.35-0.12-0.35-0.35C4.57,151.4,6.45,151.63,6.45,150.22L6.45,150.22z M92.72,2.52c3.4-0.12,6.8,0.47,7.27,0.23
	c1.76-0.59,3.4-1.06,4.57-2.11c1.52-1.29,3.28-0.35,4.1,0.35l1.52,1.05c0.94,0.94,2.7,3.17,3.17,3.63c0.82,0.47,1.05,0.47,1.76,0.47
	c3.05-0.12,7.03,2.34,7.74,5.16c0.47,1.76,1.52,7.85,1.64,8.21c0.7,1.17,1.99,2.81,2.11,3.28c0.59,1.06-0.94,0.35-0.7,1.52
	c0.24,1.64,1.41,2.58,2.11,2.7c2.46,2.81,2.46,5.51,2.23,5.63c-0.12,0.12-1.99-0.35-2.11-0.23V33c1.76,5.27,3.52,8.67-0.59,15.36
	c-0.82,1.17-1.29,2.23-1.52,3.63c0,0.59,0.35,2.23,0.35,3.28c0.12,2.34-1.17,3.99-2.46,5.86c-2.93,4.45-4.69,8.91-0.82,13.72
	c2.11,2.58,4.1,3.63,7.15,1.76c0.94-0.94,1.05-1.76,1.76-1.76c1.41,1.05,1.76,3.75,1.53,5.74c-0.24,3.4-3.05,5.74-6.33,6.56
	c-8.79,2.11-12.78-2.11-14.07-2.34c-2.46-0.35-11.61-0.47-16.41-3.99c-2.23-1.88-3.28-3.16-3.99-3.05
	c-3.05,0.71-3.75,4.81-11.25,5.86c-2.23,0.23-4.69,0.12-6.56,0.94c-4.81,3.05-10.2,5.39-17.7,2.93c-3.99-1.52-9.61-8.44-4.69-12.89
	c0.7,1.29,2.11,2.58,4.1,3.87c1.29,0.59,5.63,1.05,8.56-1.64c1.64-1.52,2.58-3.16,2.93-5.27l0.59-11.49
	c0.35-3.17,1.29-5.86,2.81-8.67c0.59-0.94,2.23-2.58,1.88-3.63c-0.23-0.82-0.94-0.82-1.52-1.17c-0.7-0.59-0.94-1.52-1.17-2.23
	c-0.47-1.29-0.94-2.7-1.17-3.05c-1.05-1.52-4.45-2.34-6.45-2.23c-1.17,0.47-1.41,1.17-2.23,0.47c-0.94-1.05-0.82-1.99-0.35-2.58
	c0.94-1.41,1.41-1.88,5.28-2.11c1.52,0.12,3.52,1.29,3.99,0.82c0.7-0.82-1.64-3.16-2.11-3.4c-1.17-0.47-1.88-0.59-2.58-2.11
	c-0.71-1.52-1.88-5.39-2.11-5.63c-0.7-0.7-1.17-1.41-1.52-2.46c-0.23-1.06,0-2.23,0.82-3.05l0.59-0.35c0.7-0.47,1.76-0.94,2.46-1.52
	l0.82-0.59c0.47-0.47,4.45-2.34,6.68-3.4l0.82-0.47c1.29-1.06,1.17-1.52,1.99-3.28c0.23-0.59,0.7-0.82,0.94-1.06
	c1.29-0.59,2.46-0.94,3.87-1.29c0.59,0,6.1-0.23,7.85-1.05C89.79,5.33,91.08,2.52,92.72,2.52L92.72,2.52z M108.43,16.82
	c-0.35-0.35-0.94-1.29,0.47-0.82c4.1,1.64,6.92,3.75,9.61,8.67c2.82,4.92,2.23,7.97-0.47,12.31c-0.7,1.17-4.34,5.04-4.81,5.98
	c-1.29,1.29-3.4,3.28-3.87,5.16c-0.23,0.47,0.23,0.7,0.7,0.47c3.99-1.87,9.26-5.98,11.02-7.97c1.99-2.58,3.05-5.39,1.52-9.85
	c-0.23-0.7-1.29-2.34-1.88-3.63c-0.47-0.94-0.94-2.93-1.41-4.34c-0.7-2.11-1.88-3.63-3.63-4.92c-1.64-1.29-4.69-3.05-5.98-4.81
	c-0.82-1.17-0.12-1.88,0.59-3.28c1.76-2.46-2.23-8.67-4.92-7.97c-1.76,0.7-0.47,0.59-4.57,2.7c-1.99,1.05-2.7,3.4-1.41,4.92
	c0.82,0.82,2.23,1.99,2.58,2.34c0,0.12,0.24,0.47-0.23,0.59c-0.71,0.35-0.71,0.59-1.17,0.23c-0.23-0.12-0.94-0.7-1.41-1.17
	c-0.82-0.7-3.63-2.7-3.99-2.93c-2.7-1.06-10.78-0.94-13.83-0.47c-1.4,0.23-3.28,0.82-3.63,1.17c-0.12,0.12-1.29,1.64-1.06,1.76h0.35
	c0.47-0.12,1.64-0.82,2.23-1.06c0.7-0.12,3.28,0.23,3.75,1.06c-0.12,0-1.29-0.12-1.99-0.12c-1.99,0.47-0.7,2.46-0.12,2.34h1.41v0.47
	l-0.12,0.35l-0.7,0.82c-0.23,0.23-0.12,0.23,0.35,0.23c0.94-0.12,1.41-0.23,1.41,0.23c-0.59,0.7-2.11,1.64-2.81,1.76
	c-1.06,0.35-0.7-0.23-1.64-1.06c-0.23-0.23-1.52-0.59-1.88-0.82l-0.47-0.47c-0.47-1.29-0.12-1.88-0.94-1.52
	c-0.23,0.12-9.49,4.22-11.14,5.51c-0.23,0.23-0.47,0.35-0.7,0.7c-0.47,0.82-0.82,1.41-0.7,1.88c0.23,0.35,0.23,0.7,0.59,0.94
	c0.59,0.47,1.41-0.59,2.23-0.94c0.35-0.23,0.59-0.12,0.7,0.23c0.12,0.59-0.94,1.64-1.17,2.11c-0.94,1.76,0,3.87,0.94,5.63
	c0.59,1.06,0.94,0.23,1.76-0.47c1.17-1.29,4.81-1.52,6.1-2.23c0.35-0.23,1.88-1.52,2.7-1.76c1.17-0.23,2.58,0.7,3.17,1.99
	c0.82,1.29,3.52,3.4,4.34,3.99c1.05,0.7,1.64,1.76,1.41,2.7c-0.12,0.23-3.52,0.59-5.16,1.29c-1.52,0.59-2.23,1.64-3.16,2.7
	c-4.46,3.63-5.04,2.46-5.86,3.4c-1.05,1.06,0.82,4.81,2.46,4.81c2.11-0.12,1.99,0.7,4.1-0.35c0.7-0.59,1.17-1.29,1.64-2.23
	c0.82-1.76,0.82-2.11,1.76-3.4c1.76-2.34,4.1-3.52,7.15-4.1c1.06-0.23,6.68,0.7,8.32-0.23c2.11-1.64,1.17-3.28-0.47-3.4
	c-0.47-0.12-1.29-0.12-1.76,0l-1.29,0.12c0,0,0-0.7,0.12-0.94c1.29-3.17,4.57-4.92,8.44-5.51c0.35,0,0.35-0.12,0.94,0.35
	c0.23,0.12,0.23,0.47,0.12,0.7c-0.7,1.29-0.82,1.17-1.17,2.81c-0.7,3.75-0.12,3.4-1.76,5.86c-1.52,1.17-3.05,1.88-4.92,2.11
	c-5.16,1.52-9.61,3.63-13.83,6.56c-2.34,1.76-5.51,4.69-6.44,5.86c-4.34,5.86-5.04,12.89-4.34,17.47c0.35,3.87-0.35,9.85-2.35,12.07
	c-3.75,3.99-9.73,3.05-11.14,2.34c-0.35-0.35-0.82-0.59-1.06-0.59c-0.59-0.12-0.94,0.35-0.94,0.59c0.35,1.99,3.52,4.1,6.8,4.57
	c1.41,0.12,4.45-0.23,6.21-1.41l1.41-1.05l-0.35-1.41c0,0,3.87-1.99,4.46-9.5c0.12-1.99,0.23-6.8,0.12-7.5l-0.35-1.76
	c-0.23-1.17,0.23-10.79,1.88-13.01c0.82-1.17,1.99-2.58,3.87-3.63c6.8-4.1,15.47-4.81,21.57-9.61c5.39-4.1,6.68-6.92,6.21-10.9
	c-1.05-4.92-4.1-5.27-6.33-6.33c-0.59-0.23-0.47-1.06-0.94-1.88c-0.12-0.23-1.52-1.64-1.99-1.99c-0.23-0.12-0.47-0.35-0.59-0.47
	c-0.7-0.7,1.05-0.94,0.94-0.94c0.35,0,0.59-0.12,1.05,0c3.17,0.35,7.74,1.41,9.85,3.99c2.23,2.46,3.05,5.39,2.58,8.56
	c-1.06,4.34-3.52,7.5-7.38,9.61c-5.04,3.28-9.61,5.51-15.36,7.62c-1.99,0.94-3.63,1.76-5.63,2.7c-1.64,0.94-3.4,2.23-4.57,4.69
	c-1.52,3.28-2.46,9.38-1.52,12.66c0.12,1.64-0.47,2.7,0.24,3.63c0.12,0.35,0.35,0.47,0.82,0.59c1.17-3.63-0.12-8.79,4.57-14.07
	c2.81-3.4,5.39-5.04,9.38-7.15c0.35-0.23,0.7-0.35,1.17-0.35l-0.12,1.17c-0.12,0.59-1.05,2.35-1.64,3.64
	c-0.59,1.52-2.23,7.85-1.52,10.32c0.94,5.28,1.41,8.91,6.21,13.01c3.63,3.17,8.32,2.7,9.96,2.11c0.47-0.23,0.7-0.59,0.23-1.17
	c-0.35-0.35-0.82-0.47-1.41-0.7c-4.57-2.46-8.21-6.45-9.26-11.37c-0.59-1.99-0.7-3.17-1.17-4.1c-0.12-0.35-0.47-0.35-0.59,0.12
	c-0.23,0.82-0.12,2.11-0.35,2.34c-0.82,0.59-1.52-3.17-1.52-3.28c-1.17-7.74,4.81-14.07,6.56-16.06c1.06-1.17,2.93-2.81,3.87-3.28
	c0.59-0.23,1.17,0,1.06,0.23c-0.23,0.59-3.05,4.69-3.63,5.98c-0.35,0.59-1.52,5.04-1.88,6.8c0.23,1.29,0.82,2.7,1.76,0
	c0.94-2.81,3.99-7.97,5.98-10.55c4.92-6.21,4.22-6.68,6.56-9.61c0.12-0.23,0.47-0.12,0.59,0.23c0.12,0.35,0.35,0.59,0.23,1.29
	c0,0.47-0.23,1.99,0.23,2.11c0.47,0,0.47,0,1.05-1.64c0.23-0.82,0.7-2.7,0.82-4.69c0-0.94-0.12-2.23-0.23-2.93
	C114.41,22.91,112.06,20.34,108.43,16.82L108.43,16.82z M108.9,68.52c0.59,5.63,7.62,16.53,15.71,14.3c1.06-0.23,1.41,0,2.46-0.94
	c0.23-0.12,0.94-0.7,0.47-1.05l-2.58-0.59c-3.4,0.35-7.38-3.63-8.21-6.56l-0.94-2.58c-0.24-0.7-0.59-2.81-1.17-3.05h-0.23
	c-0.12,0-0.35,0.71-0.59,1.06c-3.4-1.29-2.7-7.74-1.29-9.73l2.58-3.52c2.34-2.23,6.92-6.33,7.15-6.8c0,0,0.94-1.76,1.17-2.23
	c0-0.23,0.12-0.59-0.12-0.7l-6.8,4.45c-2.34,1.52-9.14,4.45-9.14,4.45c-2.7,1.29-5.62,7.39-1.99,12.19
	c0.23,0.23,0.47,0.47,0.82-0.12c0.12-0.35,0.59-3.52,0.94-5.27c0.12-0.7,1.29-3.63,2.46-3.4l0.12,0.23
	c0.12,0.12-0.47,2.11-0.82,3.75C108.55,63.94,108.9,67.7,108.9,68.52L108.9,68.52z M83.93,76.72c-0.23-0.23-0.12-0.47,0.12-1.05
	c0.47-0.7,1.05-1.41,1.41-1.99c1.76-2.58,2.34-5.39,1.99-8.56c-0.12-1.64-0.82-3.75-0.94-5.16c-0.23-2.11,0-3.63-0.94-3.17
	c-1.99,1.52-3.05,5.04-3.17,7.27c-0.12,2.35,0.23,7.62,0.12,8.68c-0.35,1.88-0.23,1.99-1.17,4.22c-0.35,0.82-1.17,1.76-1.29,2.11
	c-0.35,0.82,0.47,0.82,1.52,0.59c1.52-0.35,2.7-0.94,3.99-1.99c0,0,0.82-0.71,0.35-1.05C85.81,76.61,84.4,76.96,83.93,76.72
	L83.93,76.72z M61.89,38.15c0.82,0,0.82,0,1.52-0.12c1.05,0,3.28,0.47,4.22,0.94c1.05,0.47,1.64,0.35,1.99,0.23
	c0.47,0,0.47,0,1.05-0.23c1.06-0.7,0.12-1.41,0-1.41c-0.35-0.23-3.63-1.29-4.1-1.41c-1.52-0.47-1.76-0.47-1.99-0.47
	c-1.76,0.35-2.46,0.94-2.7,1.41C61.66,37.57,61.89,38.15,61.89,38.15L61.89,38.15z M73.26,36.4c-0.47-0.12-0.82,0.12-0.94,0.35
	c-0.24,0.12-0.12,0.23-0.12,0.59c0.12,0.35,0.82,1.52,1.17,1.64c0.23,0.23,0.47,0.23,0.59,0.12c0.12,0,0.82-0.59,0.7-0.94
	C74.67,37.45,73.73,36.51,73.26,36.4L73.26,36.4z M73.97,34.64c-0.12,0.35,0.59,1.41,1.06,1.17c0.35-0.12,1.64-1.29,1.87-1.64
	c0.12-0.35,0.35-0.82,0.23-0.94c-0.59-0.35-1.06-0.35-1.41-0.23C75.37,33,74.32,33.82,73.97,34.64L73.97,34.64z M70.57,32.64v-1.76
	c0-0.12,0-0.47-0.12-0.7c-0.12-0.12-0.47-0.59-0.47-0.7c-0.12-0.12-0.24-0.12-0.24-0.12c-0.23-0.12-0.35,0-0.59,0.12
	c-0.23,0.12-0.59,0.59-0.59,0.59c-0.12,0-0.23,0.23-0.23,0.47c0.12,0.23,0.23,1.05,0.7,1.52c0.23,0.12,0.35,0.23,0.47,0.35
	C69.98,32.64,70.22,32.64,70.57,32.64L70.57,32.64z M119.57,19.28c0.35,0.35,1.41,0.82,1.76,0.59c0.35-0.12,0.23-1.52,0.12-1.99
	c-0.12-1.06-0.7-2.58-1.64-3.87c-0.35-0.47-2.34-1.88-3.05-1.99c-2.23,0-1.41,1.64-1.41,1.64S117.34,17.17,119.57,19.28
	L119.57,19.28z M94.95,6.39c0.35-0.23,1.05-0.82,0.7-1.64c-0.35-0.12-0.47-0.23-0.94-0.23c-0.47-0.12-1.05,0.47-1.05,1.05
	C93.66,6.03,94.01,6.74,94.95,6.39L94.95,6.39z M86.86,31.12c-1.29-0.59-1.41-0.7-2.23-1.88c-0.24-0.35-2.93-3.87-4.1-4.1
	c-0.7-0.12-0.82,0-1.17-0.47c-1.17-1.88-1.29-3.52-3.4-4.69c-0.23-0.12-0.7-0.71-0.35-1.06c0.12-0.12,0.59-0.12,0.94,0
	c1.88,0.47,3.4,1.29,4.57,2.81c0.7,1.06,0.82,1.88,1.64,2.58c0.47,0.23,0.7,0.47,1.05,0.7c0.59,0.35,1.29,1.52,1.64,2.11
	c0.59,1.17,1.06,2.23,1.64,3.63C87.21,31.12,87.1,31.24,86.86,31.12L86.86,31.12z M68.11,20.8c-0.35,0-0.58,0-0.94-0.23
	c0,0-0.12-0.12-0.12-0.59c0-0.47,0.47-0.82,0.7-0.94c0.12,0,0.47-0.35,0.82-0.35h1.17c0.12,0,0,0.23-0.12,0.35
	c0,0.12-1.05,1.41-1.05,1.41C68.58,20.57,68.34,20.8,68.11,20.8L68.11,20.8z M104.33,11.43c-0.94-0.12-3.99-1.88-4.1-2.7
	c-0.12-0.23-0.23-1.05,0-1.64c0-0.59,1.99-2.46,3.4-2.81c0.59-0.12,0.59,0.23,0.59,0.35c0,0.59-0.35,1.64-0.24,2.34
	c0,0.7,0.82,2.23,1.52,2.23c0.23,0,0.47-0.12,0.7-0.23c0.82-0.47,0.94-0.7,1.52-1.52c0.23-0.7,0.35-0.82,0.58-1.41
	c0.12-0.35,0.47-0.23,0.82,0.35c0.35,0.59,0.23,1.41,0,2.11c-0.47,1.17-1.06,1.76-2.11,2.23c-0.59,0.35-1.29,0.59-1.52,0.59
	C105.15,11.43,104.56,11.54,104.33,11.43L104.33,11.43z M92.61,80c0.23,0.12,1.05,0.47,2.34,1.88c0.59,0.59,2.81,2.93,3.63,3.05
	c0.47,0,1.06,0.82,1.06,0.82s-0.12,0.59-1.06,0.82c-0.47,0.12-2.93,0.23-2.81,3.05c0.23,2.46,2.93,2.46,3.28,2.34
	c2.93-0.35,2.93-0.82,4.22-1.99c0.7-0.7,1.05-0.12,1.05-0.12s0.94,1.05,1.99,2.58c0.12,0.12,0.82,0.82-0.23,1.76
	c-0.94,0.94-1.99,1.76-2.23,1.99c-0.35,0.12-0.82,0.7-1.41-0.12c-0.82-1.17-2.93-2.93-5.51-0.94c-2.46,1.99-2.11,5.86,1.99,7.27
	c4.34,1.52,9.03,0.47,10.9-1.05c0,0,0.82-0.35,1.41-1.88c0.59-1.41,0.7-3.05,0.35-3.87c-0.24-0.47-0.71-1.29-0.71-1.29
	s-0.59-0.82-0.12-1.29c0.71-0.82,2.23-1.99,2.23-1.99s1.41-0.94,2.11,0.12c0.59,1.05,1.29,2.35,1.29,2.35s0.35,0.59-0.35,1.64
	c-0.47,0.82-1.41,2.22-1.76,2.7c0,0-0.59,1.41-0.12,2.58c0.23,0.59,0.35,1.17,1.17,2.58c0.7,0.82,1.88,1.64,3.87,1.76
	c2.46,0.12,4.81-1.76,5.16-2.11c0.23-0.35,2.11-3.52-1.64-4.34c-1.29-0.12-1.99,0.12-2.46,0c0,0-1.41-1.29-1.52-2.34
	c-0.12-1.05,0.47-1.29,0.47-1.29s1.17-1.29,2.11-1.41c0.82-0.12,0.94,0,1.52,0.59c0.47,0.59,1.41,1.41,1.41,1.41
	c1.29,1.05,3.17-0.23,2.46-1.76c-0.82-1.53-0.94-1.53-1.29-2.23c3.05-0.94,6.1-3.75,8.32-5.16c-0.23,0.59-7.74,16.65-7.97,17.23
	c-0.23,0.7-0.82,2.93-0.23,3.99c0.35,0.82,0.59,1.99-0.35,3.17c-0.59,0.82-2.46,8.32-2.46,9.03c0.12,0.47,0.12,0.82,0.7,0.94v1.99
	c-0.23,0.47-1.41,1.88-2.23,1.76H63.89c-0.82,0.12-2.11-1.29-2.23-1.76v-1.99c0.47-0.12,0.59-0.47,0.59-0.94
	c0.12-0.7-1.76-8.21-2.34-9.03c-0.94-1.17-0.7-2.35-0.35-3.17c0.59-1.05,0-3.28-0.35-3.99c-0.23-0.59-7.85-17.23-7.85-17.23
	c0.7,0.47,4.57,3.75,8.44,5.16c0,0-0.94,1.41-1.41,2.23c-0.7,1.52,1.17,2.81,2.35,1.76c0,0,0.94-0.82,1.52-1.41
	c0.59-0.59,0.7-0.71,1.52-0.59c0.94,0.12,2.11,1.41,2.11,1.41s0.59,0.23,0.47,1.29c-0.12,1.05-1.52,2.34-1.52,2.34
	c-0.59,0.12-1.17-0.12-2.46,0c-3.75,0.82-1.88,3.98-1.64,4.34c0.35,0.35,2.58,2.23,5.16,2.11c1.99-0.12,3.17-0.94,3.87-1.76
	c0.82-1.41,0.94-1.99,1.05-2.58c0.59-1.17-0.12-2.58-0.12-2.58c-0.23-0.47-1.17-1.88-1.76-2.7c-0.7-1.05-0.23-1.64-0.23-1.64
	s0.59-1.29,1.29-2.35c0.58-1.05,2.11-0.12,2.11-0.12s1.52,1.17,2.11,1.99c0.47,0.47,0,1.29,0,1.29s-0.47,0.82-0.7,1.29
	c-0.35,0.82-0.23,2.46,0.23,3.87c0.7,1.53,1.41,1.88,1.52,1.88c1.88,1.52,6.56,2.58,10.78,1.05c4.34-1.41,4.69-5.28,1.99-7.27
	c-2.58-1.99-4.57-0.23-5.39,0.94c-0.7,0.82-1.17,0.23-1.41,0.12c-0.23-0.23-1.29-1.05-2.23-1.99c-1.06-0.94-0.35-1.64-0.23-1.76
	c1.06-1.52,1.99-2.58,1.99-2.58s0.35-0.59,0.94,0.12c1.41,1.17,1.41,1.64,4.34,1.99c0.35,0.12,3.05,0.12,3.16-2.34
	c0.24-2.81-2.23-2.93-2.7-3.05c-0.94-0.23-1.17-0.82-1.17-0.82s0.7-0.82,1.06-0.82c0.82-0.12,3.17-2.46,3.75-3.05
	C91.55,80.47,92.37,80.12,92.61,80L92.61,80z M120.04,119.63c0.12-0.12,0-1.29,0-1.29c-0.12-0.47-0.7-1.76-0.82-2.46
	c-0.23-0.59,0-3.4,0.82-4.1c1.52-0.7,1.76,0.59,1.52-1.29H63.53c-0.12,1.88,0,0.59,1.64,1.29c0.7,0.7,0.94,3.52,0.82,4.1
	c-0.23,0.71-0.82,1.99-0.82,2.46c0,0-0.24,1.17-0.12,1.29C65.06,119.74,120.04,119.74,120.04,119.63L120.04,119.63z M63.07,115.41
	h0.7V114h-0.7V115.41L63.07,115.41z M120.97,115.41h0.7V114h-0.7V115.41L120.97,115.41z M62.13,109.19h60.6
	c0.23,0,0.35-0.12,0.35-0.23v-1.64c0-0.12-0.12-0.24-0.35-0.24h-60.6c-0.23,0-0.23,0.12-0.23,0.24v1.64
	C61.89,109.08,61.89,109.19,62.13,109.19L62.13,109.19z M64.82,122.44h55.45c0.12,0,0.23-0.12,0.23-0.23v-0.94
	c0-0.12-0.12-0.23-0.23-0.23H64.82c-0.12,0-0.23,0.12-0.23,0.23v0.94C64.59,122.32,64.71,122.44,64.82,122.44L64.82,122.44z
	 M106.44,118.22c-1.52,0-2.58-1.17-2.58-2.58v-1.17c0-1.52,1.05-2.58,2.58-2.58h5.51c1.41,0,2.58,1.17,2.58,2.58v1.17
	c0,1.41-1.17,2.58-2.58,2.58H106.44L106.44,118.22z M109.14,116.93c1.4,0,2.58-0.82,2.58-1.88c0-1.05-1.17-1.88-2.58-1.88
	c-1.41,0-2.58,0.82-2.58,1.88C106.56,116.11,107.73,116.93,109.14,116.93L109.14,116.93z M73.38,118.22c-1.41,0-2.58-1.17-2.58-2.58
	v-1.29c0-1.41,1.17-2.58,2.58-2.58h5.51c1.41,0,2.58,1.17,2.58,2.58v1.29c0,1.41-1.17,2.58-2.58,2.58H73.38L73.38,118.22z
	 M76.19,116.81c1.41,0,2.46-0.82,2.46-1.88c0-0.94-1.05-1.88-2.46-1.88c-1.41,0-2.58,0.94-2.58,1.88
	C73.62,115.99,74.79,116.81,76.19,116.81L76.19,116.81z M90.38,118.22c-1.52,0-2.58-1.17-2.58-2.58v-1.29
	c0-1.41,1.06-2.58,2.58-2.58h5.39c1.41,0,2.58,1.17,2.58,2.58v1.29c0,1.41-1.17,2.58-2.58,2.58H90.38L90.38,118.22z M93.07,116.81
	c1.41,0,2.46-0.82,2.46-1.88c0-0.94-1.05-1.88-2.46-1.88c-1.41,0-2.58,0.94-2.58,1.88C90.5,115.99,91.67,116.81,93.07,116.81
	L93.07,116.81z M68.58,116.23c-0.47,0-0.82-0.35-0.82-0.82c0-0.47,0.35-0.82,0.82-0.82c0.47,0,0.82,0.35,0.82,0.82
	C69.4,115.88,69.04,116.23,68.58,116.23L68.58,116.23z M84.64,116.23c-0.47,0-0.82-0.35-0.82-0.82c0-0.47,0.35-0.82,0.82-0.82
	c0.47,0,0.82,0.35,0.82,0.82C85.45,115.88,85.1,116.23,84.64,116.23L84.64,116.23z M116.87,116.23c-0.47,0-0.82-0.35-0.82-0.82
	c0-0.47,0.35-0.82,0.82-0.82c0.47,0,0.82,0.35,0.82,0.82C117.69,115.88,117.34,116.23,116.87,116.23L116.87,116.23z M101.16,116.23
	c-0.47,0-0.82-0.35-0.82-0.82c0-0.47,0.35-0.82,0.82-0.82c0.47,0,0.82,0.35,0.82,0.82C101.98,115.88,101.63,116.23,101.16,116.23
	L101.16,116.23z"/>
</svg>
