<?xml version="1.0" encoding="utf-8"?>
<!-- Generator: Adobe Illustrator 25.4.1, SVG Export Plug-In . SVG Version: 6.00 Build 0)  -->
<svg version="1.1" id="Layer_1" xmlns="http://www.w3.org/2000/svg" xmlns:xlink="http://www.w3.org/1999/xlink" x="0px" y="0px"
	 viewBox="0 0 175.75 114.29" style="enable-background:new 0 0 175.75 114.29;" xml:space="preserve">
<style type="text/css">
	.st0{fill-rule:evenodd;clip-rule:evenodd;fill:#213A8E;}
</style>
<path class="st0" d="M104.86,41.21c0-6.04-4.35-10.87-12.31-13.2V14.27h14.73v33.62h-4.6C104.3,45.74,104.86,43.3,104.86,41.21
	L104.86,41.21z M79.4,26.81c3.32,0,6.42,0.73,8.78,1.33C83.17,27.3,75.4,28.5,71.39,31.5v16.39h14.73V29.24
	c3.19,0.55,5.6,1.77,7.08,2.71v15.94h3.2c-3.01,3.22-8.64,5.18-13.51,4.45v0.67c14.01,1.04,19.94-5.23,19.94-12.3
	c0-8.32-8.26-13.19-16.71-14.18V14.27H71.39v12.42c-9.54,1.81-18.87,7.17-18.87,16.04c0,13.66,20.18,22.11,37.77,22.11
	c26.7,0,47.25-12.2,47.25-29.32C137.54,14.79,107.86,0,84.56,0C57.86,0,38.2,16.03,38.2,33.16c0,8.87,5.27,16.3,11.91,21.47
	l0.5-0.31c-5.26-4.13-10-10.57-10-19.42C42,16.16,66.44,5.61,88.19,5.61c15.38,0,43.02,3.35,43.02,27.66
	c0,12.69-14.33,29.18-44.45,29.18c-15.42,0-27.39-7.81-27.39-19.03C59.37,33.71,67.42,26.81,79.4,26.81L79.4,26.81z M22.35,113.62
	h18.82v-1.91h-4.83V77.98h4.83v-1.92H22.35v1.92h5.16v14.95H13.73V77.98h5.29v-1.92H0v1.92h4.84v33.72H0v1.91h19.02v-1.91h-5.29
	V95.15h13.79v16.55h-5.16V113.62L22.35,113.62z M48.48,76.07L48.48,76.07v4.45h8.62v-4.45H48.48L48.48,76.07z M44.23,113.62h17.52
	v-1.91h-4.31V86.69h-13.2v1.9h4.64v23.1h-4.64V113.62L44.23,113.62z M63.6,113.62h17.91v-1.91H77V71.13H63.6v1.91h4.77v38.66H63.6
	V113.62L63.6,113.62z M94.94,113.62h7.58v-1.91h-6.79V88.6h6.67v-1.9h-6.67V76c-2.68,0.06-5.43,0-8.04,0v10.69h-4.64v1.9h4.64v19.21
	C87.69,111.34,90.23,113.62,94.94,113.62L94.94,113.62z M134.87,105.53L134.87,105.53c0.78-1.85,0.98-4.01,0.85-6
	c-0.72-10.19-9.74-13.71-15.94-13.71c-7,0-16.41,4.14-16.41,14.14c0,7.22,5.62,14.33,16.6,14.33
	C129.84,114.29,133.89,108.05,134.87,105.53L134.87,105.53z M125.53,91.01c0.4,0.86,0.84,1.73,0.92,8.59
	c0.06,6.29,0.06,13.15-6.67,13.15c-3.01,0-4.84-1.42-5.7-2.96c-0.52-0.92-1.24-2.29-1.24-9.94c0-5.68,0.13-12.24,6.86-12.24
	C122.38,87.61,124.42,88.67,125.53,91.01L125.53,91.01z M158.75,113.62h16.99v-1.91h-4.51V94.59c0-2.84-0.26-6.79-5.75-8.33
	c-1.83-0.5-3.4-0.5-3.92-0.5c-1.3,0-3.14,0.19-5.16,0.99c-2.8,1.05-3.99,2.28-5.43,4.01v-4.07h-13.2v1.9h4.64v23.1h-4.64v1.91h17.51
	v-1.91h-4.31V99.85c0-2.97-0.06-4.15,0.26-5.26c0.91-3.64,4.77-5.86,7.12-5.86c4.18,0,4.18,3.52,4.18,7.1v15.88h-3.79V113.62
	L158.75,113.62z M130.04,58.64L130.04,58.64v4.76h0.66v-4.76h1.4v-0.49h-3.46v0.49H130.04L130.04,58.64z M136.03,62.45l-1.76-4.3
	h-0.94v5.26h0.67v-3.95h0.03l1.68,3.95h0.61l1.63-3.95h0.03v3.95h0.67v-5.26h-0.88l-1.71,4.3H136.03L136.03,62.45z"/>
</svg>
