<?xml version="1.0" encoding="utf-8"?>
<!-- Generator: Adobe Illustrator 21.0.2, SVG Export Plug-In . SVG Version: 6.00 Build 0)  -->
<svg version="1.1" id="Layer_1" xmlns="http://www.w3.org/2000/svg" xmlns:xlink="http://www.w3.org/1999/xlink" x="0px" y="0px"
	 viewBox="0 0 228.9 110" style="enable-background:new 0 0 228.9 110;" xml:space="preserve">
<style type="text/css">
	.st0{fill:#BB8545;}
	.st1{fill:#0065A5;}
	.st2{fill:#997C5D;}
	.st3{fill-rule:evenodd;clip-rule:evenodd;fill:#FFFFFF;}
	.st4{fill:#FFFFFF;}
</style>
<g>
	<g>
		<path class="st2" d="M91.7,29.6c0-18.1,15.8-26,20-29.6c4.2,3.6,19.9,11.5,19.9,29.6c0,18.1-15.7,26.1-19.9,29.6
			C107.5,55.7,91.7,47.7,91.7,29.6z"/>
		<path class="st3" d="M114.7,28.4v-6.9c0-3.5,2.3-5.7,4.8-5.7v-0.6h-15.5v0.6c2.5,0,4.8,2.2,4.8,5.7v6.9v9.4c0,3.6-2.3,5.7-4.8,5.7
			v0.6h15.5v-0.6c-2.4,0-4.8-2.2-4.8-5.7V28.4z"/>
		<path class="st3" d="M95.7,29.6c0-15.2,12.4-21.9,16-24.9c3.6,3,15.9,9.7,15.9,24.9c0,15.2-12.3,21.9-15.9,25
			C108.2,51.6,95.7,44.8,95.7,29.6z M111.8,1.6V3c3.8,3.2,17.3,10.4,17.3,26.6c0,16.2-13.5,23.4-17.3,26.6v1.5
			c-4-3.4-18.7-11-18.7-28.1C93.1,12.5,107.7,5,111.8,1.6z"/>
		<path class="st3" d="M228.3,84.9c0,1-0.7,1.7-1.5,1.7v0c-0.9,0-1.5-0.7-1.5-1.7c0-1,0.7-1.7,1.5-1.7
			C227.6,83.2,228.3,83.9,228.3,84.9z M228.9,84.9c0-1.4-1-2.2-2.2-2.2c-1.2,0-2.2,0.8-2.2,2.2c0,1.4,1,2.2,2.2,2.2
			C227.9,87,228.9,86.2,228.9,84.9z M226.4,84.7v-0.6h0.3c0.2,0,0.4,0,0.4,0.3c0,0.3-0.1,0.3-0.4,0.3H226.4z M226.4,85h0.2l0.5,1
			h0.6l-0.6-1c0.3,0,0.6-0.2,0.6-0.6c0-0.5-0.4-0.7-1-0.7h-0.9V86h0.5V85z"/>
		<path class="st3" d="M203.6,79.6c-0.1,0-0.1-0.1-0.1-0.2l1.6-5.7c0-0.1,0.1-0.2,0.1-0.2c0.1,0,0.1,0.1,0.1,0.2l1.5,5.7
			c0,0.1,0,0.1-0.1,0.1H203.6z M207,80.8c0.1,0,0.1,0,0.2,0.2l1.4,4.9c0.1,0.3,0,0.5-0.2,0.5c-0.2,0-0.2,0.1-0.2,0.2
			c0,0.2,0.2,0.2,0.5,0.2c1.4,0,2.6,0,3.2,0c0.6,0,0.8,0,0.8-0.2c0-0.2-0.1-0.2-0.2-0.2c-0.2,0-0.5,0-0.7-0.1
			c-0.4-0.1-0.8-0.4-1.5-2.5c-1.1-3.5-3.8-13-4.2-14.2c-0.2-0.5-0.3-0.7-0.4-0.7c-0.2,0-0.3,0.3-0.5,0.9l-4.2,14.5
			c-0.3,1.2-0.7,1.9-1.4,2.1c-0.1,0-0.4,0-0.5,0c-0.1,0-0.2,0-0.2,0.2c0,0.2,0.1,0.2,0.3,0.2c0.9,0,1.8-0.1,2-0.1
			c0.5,0,1.3,0.1,1.8,0.1c0.2,0,0.3,0,0.3-0.2c0-0.1,0-0.2-0.3-0.2h-0.3c-0.5,0-0.7-0.3-0.7-0.7c0-0.3,0.1-0.8,0.3-1.4l0.9-3.3
			c0-0.1,0.1-0.2,0.2-0.2H207z"/>
		<path class="st3" d="M103.5,73.9L103.5,73.9c0.4,0.4,2.2,3.3,4.1,5.8c1.8,2.4,3.9,5.4,5,6.8c0.2,0.3,0.4,0.5,0.6,0.5
			c0.2,0,0.2-0.2,0.2-0.7l0.2-14.6c0-1.3,0.2-1.8,0.6-2c0.2-0.1,0.3-0.1,0.5-0.1c0.2,0,0.3-0.1,0.3-0.2c0-0.2-0.2-0.2-0.4-0.2
			c-0.8,0-1.5,0.1-1.7,0.1c-0.4,0-1.2-0.1-2-0.1c-0.3,0-0.4,0-0.4,0.2c0,0.1,0.1,0.2,0.3,0.2c0.2,0,0.6,0,0.9,0.1
			c0.4,0.2,0.6,0.7,0.6,2.1l0.2,10.4h-0.1c-0.3-0.4-2.6-3.7-3.7-5.3c-2.5-3.4-5-7.1-5.2-7.4c-0.3-0.4-0.4-0.7-0.6-0.7
			c-0.2,0-0.2,0.3-0.2,0.8l-0.2,13.7c0,2-0.1,2.7-0.5,2.9c-0.2,0.1-0.5,0.1-0.8,0.1c-0.2,0-0.3,0-0.3,0.2c0,0.2,0.2,0.2,0.4,0.2
			c0.9,0,1.7-0.1,1.8-0.1c0.3,0,1,0.1,2.1,0.1c0.2,0,0.4,0,0.4-0.2c0-0.1-0.1-0.2-0.3-0.2c-0.3,0-0.6,0-0.9-0.2
			c-0.3-0.2-0.6-0.8-0.6-2.6L103.5,73.9z"/>
		<path class="st3" d="M122.1,80.1c0,2.1,0,4-0.1,4.9c0,0.7-0.2,1.2-0.5,1.3c-0.2,0-0.4,0.1-0.6,0.1c-0.2,0-0.3,0.1-0.3,0.2
			c0,0.2,0.1,0.2,0.3,0.2c0.7,0,1.7-0.1,2.1-0.1c0.5,0,1.5,0.1,2.7,0.1c0.2,0,0.3-0.1,0.3-0.2c0-0.1-0.1-0.2-0.3-0.2
			c-0.3,0-0.6,0-0.9-0.1c-0.5-0.1-0.6-0.6-0.7-1.2c-0.1-1-0.1-2.8-0.1-5v-9.5l2.1,0.1c1.5,0,2,0.7,2,1.3l0,0.3
			c0,0.3,0.1,0.5,0.2,0.5c0.1,0,0.1-0.1,0.2-0.4c0-0.6,0.1-2.2,0.1-2.7c0-0.3,0-0.5-0.1-0.5c-0.1,0-0.5,0.2-1.6,0.2h-6.7
			c-0.6,0-1.2,0-1.7-0.1c-0.4,0-0.6-0.3-0.7-0.3c-0.1,0-0.2,0.1-0.2,0.4c0,0.2-0.4,2.3-0.4,2.7c0,0.3,0,0.4,0.2,0.4
			c0.1,0,0.2-0.1,0.2-0.3c0-0.2,0.1-0.5,0.3-0.8c0.3-0.5,0.7-0.6,1.6-0.7l2.5-0.1V80.1z"/>
		<path class="st3" d="M133.8,80.1c0,2.2,0,4.1-0.1,5c-0.1,0.7-0.2,1.1-0.5,1.2c-0.2,0-0.4,0.1-0.6,0.1c-0.2,0-0.3,0.1-0.3,0.2
			c0,0.2,0.1,0.2,0.3,0.2c0.7,0,1.7-0.1,2.1-0.1c0.5,0,1.5,0.1,2.6,0.1c0.2,0,0.3-0.1,0.3-0.2c0-0.1-0.1-0.2-0.3-0.2
			c-0.3,0-0.6,0-0.9-0.1c-0.5-0.1-0.6-0.5-0.7-1.1c-0.1-1-0.1-2.8-0.1-5.1V76c0-3.5,0-4.2,0-4.9c0-0.8,0.2-1.2,0.6-1.3
			c0.2,0,0.3-0.1,0.5-0.1c0.2,0,0.3,0,0.3-0.2c0-0.1-0.1-0.2-0.4-0.2c-0.6,0-1.6,0.1-2.1,0.1c-0.5,0-1.6-0.1-2.2-0.1
			c-0.3,0-0.4,0-0.4,0.2c0,0.2,0.1,0.2,0.3,0.2c0.2,0,0.4,0,0.6,0.1c0.4,0.1,0.5,0.5,0.6,1.3c0,0.7,0,1.4,0,4.9V80.1z"/>
		<path class="st3" d="M143.4,73.9L143.4,73.9c0.4,0.4,2.2,3.3,4.1,5.8c1.8,2.4,3.9,5.4,5,6.8c0.2,0.3,0.4,0.5,0.6,0.5
			c0.2,0,0.2-0.2,0.2-0.7l0.2-14.6c0-1.3,0.2-1.8,0.6-2c0.2-0.1,0.3-0.1,0.5-0.1c0.2,0,0.3-0.1,0.3-0.2c0-0.2-0.2-0.2-0.4-0.2
			c-0.8,0-1.5,0.1-1.7,0.1c-0.4,0-1.2-0.1-2-0.1c-0.3,0-0.4,0-0.4,0.2c0,0.1,0.1,0.2,0.3,0.2c0.2,0,0.6,0,0.9,0.1
			c0.4,0.2,0.6,0.7,0.6,2.1l0.2,10.4h-0.1c-0.3-0.4-2.6-3.7-3.7-5.3c-2.5-3.4-5-7.1-5.2-7.4c-0.3-0.4-0.4-0.7-0.6-0.7
			c-0.2,0-0.2,0.3-0.2,0.8l-0.2,13.7c0,2-0.1,2.7-0.5,2.9c-0.2,0.1-0.5,0.1-0.8,0.1c-0.2,0-0.3,0-0.3,0.2c0,0.2,0.2,0.2,0.4,0.2
			c0.9,0,1.7-0.1,1.8-0.1c0.3,0,1,0.1,2.1,0.1c0.2,0,0.4,0,0.4-0.2c0-0.1-0.1-0.2-0.3-0.2c-0.3,0-0.6,0-0.9-0.2
			c-0.3-0.2-0.6-0.8-0.6-2.6L143.4,73.9z"/>
		<path class="st3" d="M159.8,80.1c0,2.1,0,4-0.1,4.9c-0.1,0.7-0.2,1.2-0.5,1.3c-0.2,0-0.4,0.1-0.6,0.1c-0.2,0-0.3,0.1-0.3,0.2
			c0,0.2,0.1,0.2,0.3,0.2c0.7,0,1.7-0.1,2.1-0.1c1,0,3.1,0.1,5.6,0.1c0.6,0,0.8,0,0.9-0.6c0.1-0.5,0.2-2,0.2-2.6
			c0-0.2,0-0.4-0.1-0.4c-0.1,0-0.2,0.1-0.2,0.3c-0.1,0.9-0.3,1.4-0.8,1.7c-0.4,0.3-2.1,0.3-2.5,0.3c-1.7,0-2-0.3-2-1.9
			c0-0.7,0-2.8,0-3.6v-1.8c0-0.1,0-0.2,0.1-0.2c0.4,0,3,0,3.3,0.1c0.6,0.1,0.9,0.4,0.9,0.9c0.1,0.3,0.1,0.6,0.1,0.8
			c0,0.1,0,0.2,0.2,0.2c0.2,0,0.2-0.3,0.2-0.4c0-0.2,0-1.1,0.1-1.6c0-1.2,0.1-1.6,0.1-1.7c0-0.1-0.1-0.2-0.1-0.2
			c-0.1,0-0.2,0.1-0.3,0.3c-0.2,0.2-0.4,0.3-0.8,0.3c-0.4,0-3.3,0-3.6,0c-0.1,0-0.1-0.1-0.1-0.3v-5.9c0-0.2,0-0.2,0.1-0.2
			c0.3,0,3,0,3.3,0.1c0.8,0.1,1,0.4,1.1,0.8c0.1,0.3,0.1,0.7,0.1,0.8c0,0.2,0,0.3,0.2,0.3c0.1,0,0.2-0.1,0.2-0.3
			c0-0.3,0.1-1.3,0.1-1.5c0.1-1.1,0.1-1.3,0.1-1.5c0-0.1,0-0.2-0.1-0.2c-0.1,0-0.2,0.1-0.3,0.1c-0.1,0-0.4,0.1-0.7,0.1
			c-0.3,0-4.6,0-5.2,0c-0.5,0-1.5-0.1-2.4-0.1c-0.3,0-0.4,0-0.4,0.2c0,0.2,0.1,0.2,0.3,0.2c0.2,0,0.5,0,0.7,0.1
			c0.6,0.2,0.7,0.5,0.7,1.3c0,0.7,0,1.4,0,4.9V80.1z"/>
		<path class="st3" d="M173.8,73.9L173.8,73.9c0.4,0.4,2.2,3.3,4.1,5.8c1.8,2.4,3.9,5.4,5,6.8c0.2,0.3,0.4,0.5,0.6,0.5
			c0.2,0,0.2-0.2,0.2-0.7l0.2-14.6c0-1.3,0.2-1.8,0.6-2c0.2-0.1,0.3-0.1,0.5-0.1c0.2,0,0.3-0.1,0.3-0.2c0-0.2-0.2-0.2-0.4-0.2
			c-0.8,0-1.5,0.1-1.7,0.1c-0.4,0-1.2-0.1-2-0.1c-0.3,0-0.4,0-0.4,0.2c0,0.1,0.1,0.2,0.3,0.2c0.2,0,0.6,0,0.9,0.1
			c0.4,0.2,0.6,0.7,0.6,2.1l0.2,10.4h-0.1c-0.3-0.4-2.6-3.7-3.7-5.3c-2.5-3.4-5-7.1-5.2-7.4c-0.3-0.4-0.4-0.7-0.6-0.7
			c-0.2,0-0.2,0.3-0.2,0.8l-0.2,13.7c0,2-0.1,2.7-0.5,2.9c-0.2,0.1-0.5,0.1-0.8,0.1c-0.2,0-0.3,0-0.3,0.2c0,0.2,0.2,0.2,0.4,0.2
			c0.9,0,1.7-0.1,1.8-0.1c0.3,0,1,0.1,2.1,0.1c0.2,0,0.4,0,0.4-0.2c0-0.1-0.1-0.2-0.3-0.2c-0.3,0-0.6,0-0.9-0.2
			c-0.3-0.2-0.6-0.8-0.6-2.6L173.8,73.9z"/>
		<path class="st3" d="M192.2,80.1c0,2.1,0,4-0.1,4.9c0,0.7-0.2,1.2-0.5,1.3c-0.2,0-0.4,0.1-0.6,0.1c-0.2,0-0.3,0.1-0.3,0.2
			c0,0.2,0.1,0.2,0.3,0.2c0.7,0,1.7-0.1,2.1-0.1c0.5,0,1.5,0.1,2.7,0.1c0.2,0,0.3-0.1,0.3-0.2c0-0.1-0.1-0.2-0.3-0.2
			c-0.3,0-0.6,0-0.9-0.1c-0.5-0.1-0.6-0.6-0.7-1.2c-0.1-1-0.1-2.8-0.1-5v-9.5l2.1,0.1c1.5,0,2,0.7,2,1.3l0,0.3
			c0,0.3,0.1,0.5,0.2,0.5c0.1,0,0.1-0.1,0.2-0.4c0-0.6,0-2.2,0-2.7c0-0.3,0-0.5-0.1-0.5c-0.1,0-0.5,0.2-1.6,0.2h-6.7
			c-0.6,0-1.2,0-1.7-0.1c-0.4,0-0.6-0.3-0.7-0.3c-0.1,0-0.2,0.1-0.2,0.4c0,0.2-0.4,2.3-0.4,2.7c0,0.3,0,0.4,0.2,0.4
			c0.1,0,0.2-0.1,0.2-0.3c0-0.2,0.1-0.5,0.3-0.8c0.3-0.5,0.7-0.6,1.6-0.7l2.5-0.1V80.1z"/>
		<path class="st3" d="M218.3,76c0-3.5,0-4.2,0-4.9c0-0.8,0.2-1.2,0.6-1.3c0.2,0,0.5-0.1,0.7-0.1c0.2,0,0.3,0,0.3-0.2
			c0-0.2-0.1-0.2-0.4-0.2c-0.7,0-1.9,0.1-2.3,0.1c-0.5,0-1.5-0.1-2.3-0.1c-0.3,0-0.4,0-0.4,0.2c0,0.2,0.1,0.2,0.3,0.2
			c0.2,0,0.4,0,0.6,0.1c0.6,0.2,0.7,0.5,0.7,1.3c0,0.7,0,1.4,0,4.9v4.1c0,2.1,0,4-0.1,4.9c-0.1,0.7-0.2,1.2-0.5,1.3
			c-0.2,0-0.4,0.1-0.6,0.1c-0.2,0-0.3,0.1-0.3,0.2c0,0.2,0.1,0.2,0.3,0.2c0.7,0,1.7-0.1,2.1-0.1c1.4,0,2.5,0.1,4.9,0.1
			c0.9,0,1-0.1,1.1-0.6c0.1-0.7,0.3-2.4,0.3-2.7c0-0.3,0-0.4-0.1-0.4c-0.1,0-0.2,0.1-0.2,0.3c0,0.4-0.2,1.1-0.4,1.4
			c-0.4,0.6-1.1,0.6-2,0.6c-1.3,0-1.8-0.2-2-0.5c-0.4-0.4-0.4-2-0.4-5V76z"/>
		<path class="st3" d="M90.5,87.1c-4.9,0-6.8-5-6.8-9.1c0-4,1.9-9.1,7-9.1c4.2,0,6.8,3.4,6.8,8.7C97.5,82.9,94.8,87.1,90.5,87.1z
			 M91.2,86c1.2,0,3.9-0.8,3.9-7.5c0-5.2-2.2-8.4-5-8.4c-1.9,0-4.2,1.5-4.2,7.2C86,82.1,88,86,91.2,86z"/>
		<path class="st3" d="M1.7,79.2c0,2.6,0,4.6-0.1,5.7c-0.1,0.8-0.2,1.2-0.6,1.3c-0.2,0.1-0.4,0.1-0.7,0.1c-0.2,0-0.3,0.1-0.3,0.2
			c0,0.2,0.1,0.3,0.4,0.3c0.8,0,2-0.1,2.4-0.1c0.5,0,1.7,0.1,3,0.1c0.2,0,0.4-0.1,0.4-0.3c0-0.1-0.1-0.2-0.3-0.2
			c-0.3,0-0.7-0.1-1-0.1c-0.6-0.1-0.7-0.6-0.8-1.3c-0.1-1.1-0.1-3.2-0.1-5.8v-4.6c0-4,0-4.7,0-5.6c0-0.9,0.2-1.4,0.7-1.5
			c0.2-0.1,0.4-0.1,0.6-0.1c0.2,0,0.3-0.1,0.3-0.3c0-0.2-0.2-0.2-0.4-0.2c-0.7,0-1.9,0.1-2.3,0.1c-0.6,0-1.8-0.1-2.5-0.1
			c-0.3,0-0.5,0.1-0.5,0.2c0,0.2,0.1,0.3,0.3,0.3c0.2,0,0.5,0,0.7,0.1c0.4,0.1,0.6,0.6,0.7,1.5c0,0.8,0,1.6,0,5.6V79.2z"/>
		<path class="st3" d="M12,73.9L12,73.9c0.4,0.4,2.2,3.3,4.1,5.8c1.8,2.4,3.9,5.4,5,6.8c0.2,0.3,0.4,0.5,0.6,0.5
			c0.2,0,0.2-0.2,0.2-0.7l0.2-14.6c0-1.3,0.2-1.8,0.6-2c0.2-0.1,0.3-0.1,0.5-0.1c0.2,0,0.3-0.1,0.3-0.2c0-0.2-0.2-0.2-0.4-0.2
			c-0.8,0-1.5,0.1-1.7,0.1c-0.4,0-1.2-0.1-2-0.1c-0.3,0-0.4,0-0.4,0.2c0,0.1,0.1,0.2,0.3,0.2c0.2,0,0.6,0,0.9,0.1
			c0.4,0.2,0.6,0.7,0.6,2.1l0.2,10.4h-0.1c-0.3-0.4-2.6-3.7-3.7-5.3c-2.5-3.4-5-7.1-5.2-7.4c-0.3-0.4-0.4-0.7-0.6-0.7
			c-0.2,0-0.2,0.3-0.2,0.8l-0.2,13.7c0,2-0.1,2.7-0.5,2.9c-0.2,0.1-0.5,0.1-0.8,0.1c-0.2,0-0.3,0-0.3,0.2c0,0.2,0.2,0.2,0.4,0.2
			c0.9,0,1.7-0.1,1.8-0.1c0.3,0,1,0.1,2.1,0.1c0.2,0,0.4,0,0.4-0.2c0-0.1-0.1-0.2-0.3-0.2c-0.3,0-0.6,0-0.9-0.2
			c-0.3-0.2-0.6-0.8-0.6-2.6L12,73.9z"/>
		<path class="st3" d="M30.5,80.1c0,2.1,0,4-0.1,4.9c0,0.7-0.2,1.2-0.5,1.3c-0.2,0-0.4,0.1-0.6,0.1c-0.2,0-0.3,0.1-0.3,0.2
			c0,0.2,0.1,0.2,0.3,0.2c0.7,0,1.7-0.1,2.1-0.1c0.5,0,1.5,0.1,2.7,0.1c0.2,0,0.3-0.1,0.3-0.2c0-0.1-0.1-0.2-0.3-0.2
			c-0.3,0-0.6,0-0.9-0.1c-0.5-0.1-0.6-0.6-0.7-1.2c-0.1-1-0.1-2.8-0.1-5v-9.5l2.1,0.1c1.5,0,2,0.7,2,1.3l0,0.3c0,0.3,0,0.5,0.2,0.5
			c0.1,0,0.1-0.1,0.2-0.4c0-0.6,0-2.2,0-2.7c0-0.3,0-0.5-0.1-0.5c-0.1,0-0.5,0.2-1.6,0.2h-6.7c-0.6,0-1.2,0-1.7-0.1
			c-0.4,0-0.6-0.3-0.7-0.3c-0.1,0-0.2,0.1-0.2,0.4c0,0.2-0.4,2.3-0.4,2.7c0,0.3,0,0.4,0.2,0.4c0.1,0,0.2-0.1,0.2-0.3
			c0-0.2,0.1-0.5,0.3-0.8c0.3-0.5,0.7-0.6,1.6-0.7l2.5-0.1V80.1z"/>
		<path class="st3" d="M41.4,80.1c0,2.1,0,4-0.1,4.9c-0.1,0.7-0.2,1.2-0.5,1.3c-0.2,0-0.4,0.1-0.6,0.1c-0.2,0-0.3,0.1-0.3,0.2
			c0,0.2,0.1,0.2,0.3,0.2c0.7,0,1.7-0.1,2.1-0.1c1,0,3.1,0.1,5.6,0.1c0.6,0,0.8,0,0.9-0.6c0.1-0.5,0.2-2,0.2-2.6
			c0-0.2,0-0.4-0.1-0.4c-0.1,0-0.2,0.1-0.2,0.3c-0.1,0.9-0.3,1.4-0.8,1.7c-0.4,0.3-2.1,0.3-2.5,0.3c-1.7,0-2-0.3-2-1.9
			c0-0.7,0-2.8,0-3.6v-1.8c0-0.1,0-0.2,0.1-0.2c0.4,0,3,0,3.3,0.1c0.6,0.1,0.9,0.4,0.9,0.9c0.1,0.3,0.1,0.6,0.1,0.8
			c0,0.1,0,0.2,0.2,0.2c0.2,0,0.2-0.3,0.2-0.4c0-0.2,0-1.1,0.1-1.6c0.1-1.2,0.1-1.6,0.1-1.7c0-0.1,0-0.2-0.1-0.2
			c-0.1,0-0.2,0.1-0.3,0.3c-0.2,0.2-0.4,0.3-0.8,0.3c-0.4,0-3.3,0-3.6,0c-0.1,0-0.1-0.1-0.1-0.3v-5.9c0-0.2,0-0.2,0.1-0.2
			c0.3,0,3.1,0,3.3,0.1c0.8,0.1,1,0.4,1.1,0.8c0.1,0.3,0.1,0.7,0.1,0.8c0,0.2,0,0.3,0.2,0.3c0.1,0,0.2-0.1,0.2-0.3
			c0-0.3,0.1-1.3,0.1-1.5c0.1-1.1,0.1-1.3,0.1-1.5c0-0.1,0-0.2-0.1-0.2c-0.1,0-0.2,0.1-0.3,0.1c-0.1,0-0.4,0.1-0.7,0.1
			c-0.3,0-4.6,0-5.2,0c-0.5,0-1.5-0.1-2.4-0.1c-0.3,0-0.4,0-0.4,0.2c0,0.2,0.1,0.2,0.3,0.2c0.2,0,0.5,0,0.7,0.1
			c0.6,0.2,0.7,0.5,0.7,1.3c0,0.7,0,1.4,0,4.9V80.1z"/>
		<path class="st3" d="M56.3,70.8c0-0.2,0-0.3,0.2-0.3c0.2-0.1,0.5-0.1,0.9-0.1c1,0,2.6,1,2.6,4.2c0,1.9-0.5,3-1,3.5
			c-0.3,0.3-0.5,0.4-1.2,0.4c-0.4,0-0.9-0.1-1.3-0.2c-0.1-0.1-0.2-0.2-0.2-0.4V70.8z M54.3,80.1c0,2.1,0,4-0.1,4.9
			c-0.1,0.7-0.2,1.2-0.5,1.3c-0.2,0-0.4,0.1-0.6,0.1c-0.2,0-0.3,0.1-0.3,0.2c0,0.2,0.1,0.2,0.3,0.2c0.7,0,1.7-0.1,2.1-0.1
			c0.3,0,1.5,0.1,2.5,0.1c0.2,0,0.3-0.1,0.3-0.2c0-0.1-0.1-0.2-0.2-0.2c-0.2,0-0.6,0-0.8-0.1c-0.5-0.1-0.6-0.6-0.7-1.3
			c-0.1-1-0.1-2.8-0.1-5v-0.3c0-0.1,0.1-0.2,0.1-0.2l1.5,0c0.1,0,0.2,0,0.3,0.2c0.2,0.3,1,1.9,1.7,3.2c0.9,1.8,1.6,2.9,2.3,3.4
			c0.4,0.3,0.9,0.4,1.8,0.4h1.6c0.2,0,0.3,0,0.3-0.2c0-0.1-0.1-0.2-0.2-0.2c-0.1,0-0.3,0-0.5-0.1c-0.3-0.1-0.9-0.2-1.9-1.6
			c-1-1.4-2.2-3.5-3.7-6.1c1.7-1.9,2.2-3.5,2.2-5.2c0-1.5-0.7-2.7-1.1-3.2c-0.9-0.9-2-1-3.1-1c-0.5,0-1.8,0.1-2.4,0.1
			c-0.4,0-1.4-0.1-2.3-0.1c-0.3,0-0.4,0-0.4,0.2c0,0.2,0.1,0.2,0.3,0.2c0.2,0,0.5,0,0.7,0.1c0.6,0.2,0.7,0.5,0.7,1.3
			c0,0.7,0,1.4,0,4.9V80.1z"/>
		<path class="st3" d="M76.1,87c1.2,0,2.7-0.2,3.5-0.6c0.3-0.2,0.4-0.3,0.5-0.7c0.2-0.9,0.4-3.1,0.4-3.4c0-0.2,0-0.4-0.2-0.4
			c-0.2,0-0.2,0.1-0.3,0.5c-0.1,0.5-0.3,1.2-0.7,1.7c-0.8,1.2-1.8,1.4-3.5,1.4c-2.6,0-6.1-3-6.1-9.2c0-2.5,0.4-4.9,1.8-6.7
			c0.8-1,2-1.6,3.6-1.6c1.8,0,3.3,0.7,3.9,1.6c0.5,0.7,0.7,1.6,0.8,2.4c0,0.4,0,0.6,0.2,0.6c0.2,0,0.2-0.2,0.2-0.6
			c0-0.5,0-1.9,0.1-2.8c0-0.9,0.1-1.2,0.1-1.4c0-0.2-0.1-0.3-0.3-0.3c-0.6-0.1-1.2-0.3-1.9-0.4c-0.9-0.2-1.6-0.3-2.8-0.3
			c-2.9,0-4.7,1-6.1,2.7c-1.9,2.3-2.3,5.3-2.3,7.1c0,2.5,0.5,5.4,2.4,7.6C71.2,86.3,73.4,87,76.1,87z"/>
	</g>
	<g>
		<path class="st4" d="M35.2,100.8h1v4h5.2v-4h1v9.1h-1v-4.1h-5.2v4.1h-1V100.8z"/>
		<path class="st4" d="M46.6,105.3L46.6,105.3c0-2.5,1.9-4.7,4.6-4.7s4.6,2.2,4.6,4.7v0c0,2.5-1.9,4.7-4.6,4.7
			S46.6,107.8,46.6,105.3z M54.8,105.3L54.8,105.3c0-2.1-1.5-3.8-3.6-3.8s-3.5,1.7-3.5,3.7v0c0,2.1,1.5,3.7,3.6,3.7
			S54.8,107.4,54.8,105.3z"/>
		<path class="st4" d="M61.7,101.7h-3.1v-0.9h7.1v0.9h-3.1v8.1h-1V101.7z"/>
		<path class="st4" d="M69.6,100.8h6.5v0.9h-5.5v3.1h4.9v0.9h-4.9v3.2h5.6v0.9h-6.6V100.8z"/>
		<path class="st4" d="M80.2,100.8h1v8.1h5.1v0.9h-6.1V100.8z"/>
		<path class="st4" d="M89.5,108.5l0.6-0.8c0.9,0.9,1.9,1.3,3.1,1.3c1.2,0,2-0.6,2-1.5v0c0-0.8-0.5-1.3-2.4-1.7
			c-2.1-0.5-3-1.1-3-2.6v0c0-1.4,1.3-2.5,3-2.5c1.3,0,2.3,0.4,3.2,1.1l-0.6,0.8c-0.8-0.7-1.7-1-2.6-1c-1.2,0-1.9,0.6-1.9,1.5v0
			c0,0.9,0.5,1.3,2.5,1.8c2,0.4,3,1.2,3,2.6v0c0,1.6-1.3,2.6-3.1,2.6C91.8,110,90.6,109.5,89.5,108.5z"/>
		<path class="st4" d="M111.3,108.6c-0.8,0.9-1.8,1.4-3,1.4c-1.6,0-2.8-1-2.8-2.5v0c0-1.2,0.8-2.1,2.2-2.6c-0.6-0.7-0.9-1.3-0.9-2v0
			c0-1.2,1-2.1,2.4-2.1c1.3,0,2.2,0.9,2.2,2v0c0,1.2-0.8,1.9-2.1,2.4l2.1,2.1c0.4-0.6,0.8-1.3,1.1-2l0.8,0.4
			c-0.4,0.9-0.8,1.6-1.3,2.3l1.6,1.6l-0.8,0.6L111.3,108.6z M110.7,107.9l-2.4-2.5c-1.2,0.4-1.7,1.2-1.7,1.9v0c0,1,0.8,1.7,1.9,1.7
			C109.2,109.1,110,108.7,110.7,107.9z M110.4,102.8L110.4,102.8c0-0.8-0.5-1.3-1.3-1.3c-0.8,0-1.4,0.6-1.4,1.3v0
			c0,0.5,0.2,0.9,0.9,1.7C109.8,104.1,110.4,103.5,110.4,102.8z"/>
		<path class="st4" d="M122.9,100.8h3.9c1.1,0,2,0.3,2.6,0.9c0.4,0.4,0.7,1.1,0.7,1.8v0c0,1.5-1,2.4-2.5,2.6l2.8,3.7h-1.3l-2.6-3.5
			H124v3.5h-1V100.8z M126.7,105.4c1.4,0,2.3-0.7,2.3-1.9v0c0-1.1-0.9-1.8-2.3-1.8H124v3.7H126.7z"/>
		<path class="st4" d="M134.2,100.8h6.5v0.9h-5.5v3.1h4.9v0.9h-4.9v3.2h5.6v0.9h-6.6V100.8z"/>
		<path class="st4" d="M144.2,108.5l0.6-0.8c0.9,0.9,1.9,1.3,3.1,1.3c1.2,0,2-0.6,2-1.5v0c0-0.8-0.5-1.3-2.4-1.7
			c-2.1-0.5-3-1.1-3-2.6v0c0-1.4,1.3-2.5,3-2.5c1.3,0,2.3,0.4,3.2,1.1l-0.6,0.8c-0.8-0.7-1.7-1-2.6-1c-1.2,0-1.9,0.6-1.9,1.5v0
			c0,0.9,0.5,1.3,2.5,1.8c2,0.4,3,1.2,3,2.6v0c0,1.6-1.3,2.6-3.1,2.6C146.5,110,145.3,109.5,144.2,108.5z"/>
		<path class="st4" d="M154.7,105.3L154.7,105.3c0-2.5,1.9-4.7,4.6-4.7c2.8,0,4.6,2.2,4.6,4.7v0c0,2.5-1.9,4.7-4.6,4.7
			S154.7,107.8,154.7,105.3z M162.8,105.3L162.8,105.3c0-2.1-1.5-3.8-3.6-3.8s-3.5,1.7-3.5,3.7v0c0,2.1,1.5,3.7,3.6,3.7
			S162.8,107.4,162.8,105.3z"/>
		<path class="st4" d="M168,100.8h3.9c1.1,0,2,0.3,2.6,0.9c0.4,0.4,0.7,1.1,0.7,1.8v0c0,1.5-1,2.4-2.5,2.6l2.8,3.7h-1.3l-2.6-3.5
			H169v3.5h-1V100.8z M171.8,105.4c1.4,0,2.3-0.7,2.3-1.9v0c0-1.1-0.9-1.8-2.3-1.8H169v3.7H171.8z"/>
		<path class="st4" d="M181.6,101.7h-3.1v-0.9h7.1v0.9h-3.1v8.1h-1V101.7z"/>
		<path class="st4" d="M188.7,108.5l0.6-0.8c0.9,0.9,1.9,1.3,3.1,1.3c1.2,0,2-0.6,2-1.5v0c0-0.8-0.5-1.3-2.4-1.7
			c-2.1-0.5-3-1.1-3-2.6v0c0-1.4,1.3-2.5,3-2.5c1.3,0,2.3,0.4,3.2,1.1l-0.6,0.8c-0.8-0.7-1.7-1-2.6-1c-1.2,0-1.9,0.6-1.9,1.5v0
			c0,0.9,0.5,1.3,2.5,1.8c2,0.4,3,1.2,3,2.6v0c0,1.6-1.3,2.6-3.1,2.6C191,110,189.8,109.5,188.7,108.5z"/>
	</g>
</g>
</svg>
