<?xml version="1.0" encoding="utf-8"?>
<!-- Generator: Adobe Illustrator 21.0.2, SVG Export Plug-In . SVG Version: 6.00 Build 0)  -->
<svg version="1.1" id="Layer_1" xmlns="http://www.w3.org/2000/svg" xmlns:xlink="http://www.w3.org/1999/xlink" x="0px" y="0px"
	 viewBox="0 0 175.7 99.1" style="enable-background:new 0 0 175.7 99.1;" xml:space="preserve">
<style type="text/css">
	.st0{fill:#BB8545;}
	.st1{fill:#0065A5;}
	.st2{fill-rule:evenodd;clip-rule:evenodd;fill:#B1B1B1;}
	.st3{fill-rule:evenodd;clip-rule:evenodd;fill:#919191;}
	.st4{fill-rule:evenodd;clip-rule:evenodd;fill:#ECECEC;}
	.st5{fill-rule:evenodd;clip-rule:evenodd;fill:#C6C6C6;}
	.st6{fill-rule:evenodd;clip-rule:evenodd;fill:#ABABAB;}
	.st7{fill-rule:evenodd;clip-rule:evenodd;fill:#FFFFFF;}
	.st8{fill:#FFFFFF;stroke:#FFFFFF;stroke-width:0.5;stroke-linecap:round;stroke-linejoin:round;stroke-miterlimit:10;}
</style>
<g>
	<path class="st2" d="M80.6,23.7c-3.1,0-6.7,3.4-6.7,8.1c0,3.3,1.6,7,2.5,8.5c-1.1,1.1-1.1,1.7-1.1,2.7h10.9c-0.3,0-0.9-0.8-0.9-1.6
		c0-0.5,0.3-1,0.3-1.2c-0.7-0.9-1.8-1.6-2.9-1.6c-0.4,0-1.1,0.1-1.1,0.1s-0.3-0.5-0.3-1.3c0-1.1,0.8-1.8,1.9-3c0-0.5,0-1-0.1-1.4
		l0,0c0,0,1.9-0.8,3.2-0.8c1.3,0,3,0,3,0l0,0c0.1,0.6,0.1,1.2,0.1,2c2.8,2.8,4.5,6.2,4.5,8.8h4.9v0c0.1,0.5,0.2,0.8,0.2,0.8
		c0.9,0,1.8-0.8,1.8-0.8c0-2.5-1.5-4.6-3.5-4.6c-1.8-1.8-1.5-6.3-1.5-8.2c1.5-1.5,2.5-3.7,2.5-6.6c0-2.9-1.4-5.4-1.4-5.4l1.2-1.2
		c0,0-2.6-3.8-2.6-6.6c0,0,0.9-0.9,0.9-2.1c0-1.2-0.9-2.2-0.9-2.2L94,7.4c0,0-2.2-0.7-3.3-0.7c-1.1,0-1.9,0.7-1.9,1.2
		c0,0-1-0.3-1.6-0.3c-1.1,0-2,0.9-2,2.5l1.2,0.3l0,0c0,0-0.1,0.5-0.1,1.1c0,1.1,0.9,2,2.5,2c0,1.3,0,2.3-0.9,3.4l0,0l-1.9-1.4
		c0-4.7-3.1-6.2-4.2-6.2c-2.3,0-5.6,0.3-8.1,0.3c-2.5,0-4.3-0.5-5.5-1.1c0,0-0.4,0.7-0.4,1.4c0,1,0.4,1.6,1.1,1.9v0
		c0,0.6,0.2,1.8,1.4,2.4l0,0c0,1.1,0.8,2.5,2.6,2.5l-0.1,0c0,0.7,1,2.2,3.8,2.2c0,0,0,0,0.1,0h-0.1c0,0.9,0.6,2.2,2.6,2.2
		c0,0,0,0,0,0h0c0,0.8,0.3,1.9,1.5,2.1l-0.1,0C80.5,23.3,80.5,23.5,80.6,23.7L80.6,23.7L80.6,23.7z"/>
	<polygon class="st3" points="94,7.4 94.4,8.1 94.9,7.2 95.2,6.2 94,7.4 	"/>
	<path class="st4" d="M94.9,7.2c0,0,0.7,0.6,0.7,1.9c0,1.3-1,1.6-1,1.6l0.5-0.2c0,0,0.9-0.9,0.9-2.1c0-1.1-0.9-2.2-0.9-2.2L94.9,7.2
		L94.9,7.2z"/>
	<path class="st3" d="M94.6,10.7c0,2.1,0.4,4.3,1.8,6.7l1.3-0.3c0,0-2.6-3.8-2.6-6.6L94.6,10.7L94.6,10.7z"/>
	<polygon class="st4" points="96.5,17.4 95.3,18.6 96.6,18.3 97.8,17.1 96.5,17.4 	"/>
	<path class="st3" d="M95.3,18.6c0,0,1.7,2.2,1.7,5.3c0,2.6-1.5,3.9-1.5,3.9v2.5c0,0,2.5-2.1,2.5-6.6c0-2.9-1.4-5.4-1.4-5.4
		L95.3,18.6L95.3,18.6z"/>
	<path class="st4" d="M95.5,30.3c0,1.5-0.6,7.5,1.2,9.4l0.3-1.1C96.5,38,95.4,36.6,95.5,30.3L95.5,30.3z"/>
	<path class="st4" d="M96.7,39.7c1,0,3-0.4,3,3.1l0.9,0.3c0-1.9-1.1-4.5-3.5-4.5L96.7,39.7L96.7,39.7z"/>
	<path class="st3" d="M99.8,42.8l-0.9,1.1c0,0,0.9,0.1,1.8-0.8L99.8,42.8L99.8,42.8z"/>
	<path class="st4" d="M99.8,42.8c-0.4-0.8-0.8-2-2.3-2l1.1,0.6c0,0,0.1,2.1,0.3,2.4L99.8,42.8L99.8,42.8z"/>
	<polygon class="st3" points="97.5,40.8 98.6,42.3 98.5,41.4 97.5,40.8 	"/>
	<polygon class="st3" points="98.6,42.3 94.8,42.3 93.8,43.1 98.7,43.1 98.6,42.3 	"/>
	<path class="st3" d="M93.7,42.3h-8.3c0.2,0.4,0.6,0.7,0.6,0.7h7.7L93.7,42.3L93.7,42.3z"/>
	<path class="st3" d="M93.8,43.1c0-3.9-3.5-7.8-4.5-8.8l0.9,0c2.9,2,4.6,5.8,4.6,8L93.8,43.1L93.8,43.1z"/>
	<path class="st4" d="M90.2,34.3c0-2.7-0.9-4.2-2.1-5.4c0,0,1.1,1.7,1.1,5.4L90.2,34.3L90.2,34.3z"/>
	<path class="st3" d="M88.9,30.7c-1.5,0-5.1,0.9-6.1,1.9l0.1,0.5c0,0,0.9-0.8,6.3-0.8C89.2,32.3,89,31.2,88.9,30.7L88.9,30.7z"/>
	<path class="st4" d="M76.7,31.4H77c0.6-0.3,1.8-0.6,2.8-0.6c1,0,2.1,0.7,2.1,3.4l1.1,0.3c0,0,0.1-4.2-2.6-4.2
		C77.7,30.3,76.7,31.4,76.7,31.4L76.7,31.4z"/>
	<path class="st3" d="M81.9,34.2c0,0-1.4,1.3-1.4,2.8c0,0.9,0.5,1.6,0.5,1.6l0.4,0.2c0,0-0.3-0.5-0.3-1.4c0-1.2,1.7-2.6,1.9-2.9
		L81.9,34.2L81.9,34.2z"/>
	<path class="st4" d="M81.5,38.8c0,0,2.2,0.4,3.3,1.7l0.7-0.3c0,0-1.1-1.6-2.9-1.6C82.2,38.7,81.5,38.8,81.5,38.8L81.5,38.8z"/>
	<path class="st3" d="M84.8,40.5c0,0-0.5,1.1-0.2,1.7l1.4,0.9c0,0-0.8-0.7-0.8-1.5c0-0.7,0.3-1.3,0.3-1.3L84.8,40.5L84.8,40.5z"/>
	<polygon class="st4" points="84.6,42.2 84.3,43.1 86,43.1 84.6,42.2 	"/>
	<path class="st4" d="M83.3,39.9c0,0,0.8,0.7,1,0.8L83.6,41C83.6,41,83.5,40.4,83.3,39.9L83.3,39.9z"/>
	<path class="st3" d="M83.6,41c0,0-0.5,0.8-0.4,1.3l1,0.7c0,0-0.3-0.5-0.3-1.1c0-0.6,0.3-1.2,0.3-1.2L83.6,41L83.6,41z"/>
	<polygon class="st4" points="83.3,42.3 83,43.1 84.3,43.1 83.3,42.3 	"/>
	<polygon class="st4" points="82.3,40.5 83.1,41.2 82.5,41.4 82.3,40.5 	"/>
	<path class="st3" d="M82.5,41.4c0,0-0.4,0.5-0.4,1l0.8,0.7c0,0-0.2-0.2-0.2-0.6c0-0.4,0.3-1.2,0.3-1.2L82.5,41.4L82.5,41.4z"/>
	<polygon class="st3" points="82.1,42.4 75.9,42.4 75.3,43.1 83,43.1 82.1,42.4 	"/>
	<path class="st4" d="M75.9,42.4c0,0,0.5-1.2,1.6-1.6l-1.1-0.5c0,0-1.1,0.6-1.1,2.7L75.9,42.4L75.9,42.4z"/>
	<path class="st4" d="M81.5,24.8c-1.6,0-6.8,1.3-6.8,7c0,5.6,2.9,9,2.9,9l-1.1-0.5c-1.8-2.9-2.5-6.8-2.5-8.5c0-4.1,3-8.1,6.7-8.1
		C80.6,23.7,81,24.5,81.5,24.8L81.5,24.8z"/>
	<path class="st4" d="M88.8,7.9l0.1,0.3c0,0,0.2-1.1,1.8-1.1c1.6,0,3.6,1,3.6,1L94,7.4c0,0-2.2-0.7-3.3-0.7
		C89.6,6.7,88.8,7.3,88.8,7.9L88.8,7.9z"/>
	<path class="st4" d="M88.9,8.2c0,0-0.5-0.1-0.7-0.1c-0.3,0-1.5,0.3-1.8,2.2L85.2,10c0-0.8,0.3-2.5,1.9-2.5c0.7,0,1.6,0.3,1.6,0.3
		L88.9,8.2L88.9,8.2z"/>
	<polygon class="st4" points="90.6,8.9 90.1,9.2 92.9,9.4 90.6,8.9 	"/>
	<path class="st3" d="M90.1,9.2c0-0.3,0-1.1,1.1-1.1c1.1,0,1.7,1.3,1.7,1.3s-0.9-1-1.7-1c-0.4,0-0.5,0.4-0.5,0.5L90.1,9.2L90.1,9.2z
		"/>
	<polygon class="st3" points="86.4,10.3 87.3,11.2 90.7,11.3 86.4,10.3 	"/>
	<path class="st4" d="M87.3,11.2c0,0.4-0.1,2.1,2.4,2.1h-1c0,0-2.5,0.1-2.5-1.9c0-0.4,0.1-0.6,0.1-0.6L87.3,11.2L87.3,11.2z"/>
	<path class="st3" d="M89.7,13.3c0,0.8-0.4,2.8-1.5,3.7l-0.4-0.3l0,0c0.3-0.4,0.9-1,0.9-3.4H89.7L89.7,13.3z"/>
	<path class="st4" d="M90.3,18.6l0.6,1.2c0,0,0.7-1.2,2.3-1.2c0,0-0.7-0.4-1.8-0.4C90.8,18.2,90.3,18.6,90.3,18.6L90.3,18.6z"/>
	<polygon class="st4" points="90.9,19.8 85.4,15.7 85.9,15.4 90.3,18.6 90.9,19.8 	"/>
	<polygon class="st4" points="90.9,22 83.6,16.6 84.1,16.3 90.6,21 90.9,22 	"/>
	<path class="st4" d="M85.4,15.7c0-1.9-0.9-5.5-4.9-5.5l-11.3,0l-1.1-1.8c1,0.4,3.2,1.1,5.8,1.1c3.8,0,5-0.3,7.7-0.3
		c1.9,0,4.4,2.1,4.4,6.2L85.4,15.7L85.4,15.7z"/>
	<path class="st3" d="M69.2,10.2c0,0.7,1,1.2,3.3,1.2c2.2,0,6.9,0,7.5,0c0.9,0,4.2,0,4.2,4.9l-0.5,0.3c0-2.1-0.6-4.6-3.7-4.6
		c-3.1,0-7.3,0.3-9,0.3c-1.7,0-3.2-0.7-3.2-2.3c0-0.8,0.4-1.5,0.4-1.5L69.2,10.2L69.2,10.2z"/>
	<path class="st3" d="M68.7,11.7c0,1.3,0.8,2.8,2.8,2.8c2.1,0,7.9-0.2,8.4-0.2c0.5,0,3.6,0.4,3.6,2.3c0,0,0-3-3.6-3
		c-3.5,0-9.6,0.6-9.6-1.4C70.2,12.2,69.2,12.1,68.7,11.7L68.7,11.7z"/>
	<path class="st3" d="M70.1,14.2c-0.2,0.8,0.7,2.4,2.6,2.4c1.9,0,10.9,0,10.9,0s-6.1-0.3-7.4-0.4c-1.3-0.1-4.3-0.3-4.3-1.7
		C71.9,14.5,70.7,14.5,70.1,14.2L70.1,14.2z"/>
	<path class="st3" d="M72.6,16.6c0,1,1.4,2.2,3.8,2.2c4.4,0,9-0.8,9-0.8l-1-0.7c0,0-1.6,1.2-6.3,1.2c-3.4,0-4-1.1-4-1.8L72.6,16.6
		L72.6,16.6z"/>
	<path class="st3" d="M76.4,18.8c0,1.3,1.1,2.2,2.6,2.2c3.5,0,8.1-1.8,8.1-1.8l-0.9-0.7c0,0-2.2,2-5.8,2c-1.3,0-2.5-0.5-2.5-1.8
		L76.4,18.8L76.4,18.8z"/>
	<path class="st3" d="M79,21c0,0-0.2,2.2,2,2.2c3.1,0,7.6-2.9,7.6-2.9l-0.8-0.6c0,0-3.4,3.1-5.4,3.1c-1.5,0-2.1-0.5-2.1-1.8L79,21
		L79,21z"/>
	<path class="st3" d="M81,23.2c-0.2,0-0.5,0-0.5,0c0,0.2,0,0.4,0.1,0.6c0.4,0.7,1,1.6,2.5,1.6c3.6,0,6.8-4,6.8-4l-0.7-0.5
		c0,0-2,4.2-5.7,4.2c-0.9,0-1.9-0.6-1.9-1.8C81.6,23.2,81.2,23.2,81,23.2L81,23.2z"/>
	<path class="st3" d="M83.3,25.3c0,0,0.7,1.1,3,1.1c2.3,0,4.6-2.7,4.6-4.5l-0.6-0.4c0,0-0.1,4.3-4,4.3c-1,0-1.6-0.8-1.6-0.8
		S83.9,25.3,83.3,25.3L83.3,25.3z"/>
	<polygon class="st4" points="107.3,3.3 107.5,3.1 64.5,3.1 64.5,46.1 64.8,45.9 64.8,3.3 107.3,3.3 	"/>
	<path class="st5" d="M107.3,3.3H64.8v42.6l42.5,0V3.3L107.3,3.3L107.3,3.3z M106.9,45.6c-0.3,0-41.4,0-41.6,0c0,0,0-0.1,0-0.2
		c-0.1,0-0.2,0-0.2,0c0-0.3,0-41.4,0-41.7c0.3,0,41.4,0,41.6,0c0,0,0,0.1,0,0.2c0.1,0,0.2,0,0.2,0C106.9,4.1,106.9,45.3,106.9,45.6
		L106.9,45.6z"/>
	<path class="st4" d="M106.7,45.3c-0.3,0-38.7,0-41.4,0c0,0-0.2,0.2-0.2,0.2c0.3,0,41.6,0,41.8,0c0-0.3,0-41.7,0-41.9
		c0,0-0.2,0.2-0.2,0.2C106.7,6.5,106.7,45.1,106.7,45.3L106.7,45.3z"/>
	<polygon class="st6" points="107.3,3.3 107.3,45.9 64.8,45.9 64.5,46.1 107.5,46.1 107.5,3.1 107.3,3.3 	"/>
	<path class="st6" d="M106.7,3.9c0,0,0.2-0.2,0.2-0.2c-0.3,0-41.6,0-41.8,0c0,0.3,0,41.7,0,41.9c0,0,0.2-0.2,0.2-0.2
		c0-2.6,0-41.2,0-41.5C65.6,3.9,104.1,3.9,106.7,3.9L106.7,3.9z"/>
	<polygon class="st4" points="110.1,0.5 110.6,0 61.4,0 61.4,49.2 61.9,48.7 61.9,0.5 110.1,0.5 	"/>
	<path class="st5" d="M110.1,0.5H61.9v48.2l48.2,0V0.5L110.1,0.5L110.1,0.5z M109.7,48.3c-0.3,0-46.9,0-47.2,0c0,0,0-0.1,0-0.3
		c-0.2,0-0.2,0-0.3,0c0-0.3,0-46.9,0-47.2c0.3,0,46.9,0,47.2,0c0,0,0,0.1,0,0.3c0.2,0,0.2,0,0.3,0C109.7,1.4,109.7,48,109.7,48.3
		L109.7,48.3z"/>
	<path class="st4" d="M109.5,48.1c-0.3,0-43.9,0-46.9,0c0,0-0.3,0.2-0.3,0.3c0.3,0,47.1,0,47.4,0c0-0.3,0-47.2,0-47.5
		c0,0-0.3,0.3-0.3,0.3C109.5,4.1,109.5,47.8,109.5,48.1L109.5,48.1z"/>
	<polygon class="st6" points="110.1,0.5 110.1,48.7 61.9,48.7 61.4,49.2 110.6,49.2 110.6,0 110.1,0.5 	"/>
	<path class="st6" d="M109.5,1.1c0,0,0.3-0.2,0.3-0.3c-0.3,0-47.1,0-47.4,0c0,0.3,0,47.1,0,47.4c0,0,0.3-0.3,0.3-0.3
		c0-3,0-46.6,0-46.9C62.8,1.1,106.5,1.1,109.5,1.1L109.5,1.1z"/>
	<path class="st7" d="M8.1,61.9c-1,0.1-2.7,0.2-3.4,0.2L1,61.9c0,0,0,0,0,0c-0.1,0-0.1,0.1-0.1,0.1c0,0,0,0,0,0c0,0,0,0,0,0
		c0,0,0,0,0,0l0.1,0.6l0.1,0c0.4,0,1.5,0,2,0.4c0.5,0.4,0.7,1.2,0.7,8v5c0,5.8-0.9,6.7-1.4,6.7l-0.3-0.1l-0.4-0.1
		c-0.2,0-1.7,0.7-1.7,1.1c0,0.3,0.5,0.7,1,0.7c1.9,0,3.9-2.8,4.8-4.1l0,0l0-0.1l0.1-1.7l-0.1-7.1v-1.9l0.1-3.7c0-2.9,0.2-3,2.3-3.1
		l0.2,0l0-0.8L8.1,61.9L8.1,61.9z"/>
	<path class="st7" d="M29,62h-1.6l0.2,0.7l0.2,0c1.1,0,2.2,0.2,2.2,1.4c0,1-1.7,6.2-3.7,11c-1-2.5-4-10.6-4-11.5c0,0,0,0,0,0
		c0-0.3,0-0.7,1.8-0.9l0.2,0l0-0.8l-0.2,0c-1.2,0.1-2.6,0.1-4.1,0.1l-1.6,0L18,62l0.1,0.8l0.1,0c0.4,0,0.9,0.1,1.3,0.6
		c0.2,0.3,0.5,1.1,1.5,3.2c0,0,0.1,0.3,0.2,0.4c-0.1,0.1-2.2,4.8-2.2,4.8l-0.4,0.9l-0.5,1.3c0,0-0.2,0.6-0.4,1
		c-0.8-1.8-4-10.6-4-11.5c0-0.5,1.1-0.8,1.9-0.9l0.2,0L15.7,62h-1c0,0-2.2,0-2.2,0l-1.8,0l-0.4,0c0,0-1.2-0.1-1.2-0.1
		C9,62,9,62,9,62c0,0-0.1,0-0.1,0.1c0,0,0,0.7,0,0.7h0.2c0.6,0,1.5,0,2.2,1.2c0.8,1.5,2.4,6.3,3.4,9.2l0.6,1.7l1.5,4.4h0.6l0.3-0.9
		c0.5-1.5,1.1-3.3,2-5.4l1.3-3c0,0,0.6-1.3,0.6-1.3s0.1-0.1,0.1-0.3c0.2,0.6,2,5.5,2,5.5l1.1,3.2l0.7,2.2l0.1,0l0.5,0l0.5-1.5
		l0.8-2.3c0.6-1.6,0.7-1.9,0.8-2c0,0,0,0,0,0l2.5-7c1.1-3.1,1.8-3.7,3.1-3.8l0.1,0l0-0.8l-1.2,0C31,62,30,62,29,62L29,62z"/>
	<path class="st7" d="M60.5,74.6l-0.1-3.7l0-0.4l-0.1-3.5c0-0.4,0-0.8,0-1.2c0-2.7,0.3-2.7,2.2-2.9l0.1,0l0-0.8h-3.9l0,0.1
		c-0.4,1-2.2,4.2-3.4,6.5l-1.4,2.7c-1,1.9-1.3,2.5-1.7,3.2c-5-9.4-5.2-9.8-6.2-12.3l0-0.1h-1.2L42.8,62c0,0-1.7-0.1-1.7-0.1l-0.3,0
		l0,0.2l-0.1,0.7l0.2,0c2,0.1,2.8,0.6,2.8,3l0,0.8l0,0.5l-0.4,6.6c-0.2,3.4-0.2,4-2.5,4.4l-0.1,0l0,0.7l2.7-0.1c0,0,1.5,0,1.5,0
		l0.8,0l1.1,0.1l0-0.2l0-0.6l-0.2,0c-2.1-0.2-2.2-0.7-2.2-1.8c0-2.2,0.1-5.8,0.6-10.6c0.4,0.7,4.1,8,4.1,8c1.1,2.1,1.7,3.9,2,4.8
		l0.1,0.2h0.6l0-0.1c0.3-1.2,0.9-2.4,1.5-3.6l0.1-0.2c0.9-1.8,2.8-5.4,4-7.7c0,0,0.4-0.8,0.7-1.3c0.2,1.5,0.2,2.2,0.2,3.6l0.1,3.4
		c0,0,0,1.5,0,1.5c0,3-0.5,3.3-2.3,3.7l-0.1,0l0,0.8l0.3,0c0.4-0.1,0.9-0.1,2.3-0.1h4v-0.8l-0.2,0C60.8,77.7,60.6,77.4,60.5,74.6
		L60.5,74.6z"/>
	<path class="st7" d="M77.7,77.3c-0.5-0.7-1.5-3.2-2.3-5.2l-0.2-0.5c0,0-2.7-7.1-2.7-7.1c0,0-0.1-0.2-0.1-0.2
		c-0.2-0.6-0.4-1.2-0.8-2.5l0-0.1h-0.7l0,0.1c-0.5,1.8-1.3,3.7-2,5.3l-0.1,0.2c0,0-2,4.8-2,4.8c-0.4,1.1-1.9,4.7-2.5,5.2
		c0,0-0.4,0.4-1.1,0.6l-0.1,0v0.7l0.2,0c0.5,0,1.3-0.1,2.3-0.1c1.1,0,1.7,0.1,2.3,0.2l0.4,0v-0.7l-0.1,0c-1.9-0.3-1.9-0.7-1.9-1.1
		c0-0.3,0.1-0.6,0.6-1.8c0,0,0.7-1.8,0.9-2.2c0.7-0.1,1.8-0.2,2.5-0.1h1c0.7,0,1.6,0,2.3,0.1c0.1,0.2,0.9,2.4,0.9,2.4
		c0.1,0.2,0.6,1.5,0.6,2c0,0.4-0.6,0.6-1.1,0.7l-0.1,0v0.7l0.4,0c0.5,0,1.5-0.1,2.7-0.1c1,0,1.5,0,2,0.1l0.2,0v-0.8l-0.1,0
		C78.4,77.7,77.9,77.6,77.7,77.3L77.7,77.3L77.7,77.3z M70.3,66.4c0,0,0.2-0.5,0.4-0.9c0.3,0.7,0.9,2,1,2.4c0,0,0.9,2.3,0.9,2.3
		c0,0,0.5,1.3,0.5,1.3s0,0,0,0.1c-0.3,0-1.7,0-1.7,0c0,0-1.2,0-1.2,0c0,0-1.1,0-2-0.1c0.1-0.2,0.2-0.6,0.2-0.6l0.1-0.2l1.4-3.7l0,0
		L70.3,66.4L70.3,66.4z"/>
	<path class="st7" d="M96,78.5c-2.5-0.2-4.9-3.8-7.2-7.3c0,0-0.3-0.4-0.5-0.7c2.2-0.9,3.4-2.4,3.4-4.3c0-2.2-2-4.5-5.8-4.5
		c-0.4,0-1.4,0.1-2.4,0.2L81.4,62l-1.8,0l0,0.1l0,0.2l0,0.3l0.2,0c1.6,0.2,1.7,0.2,1.7,5.1v5.6c0,4.1-0.3,4.2-1.2,4.4
		c-0.4,0.1-0.6,0.2-0.6,0.5c0,0.2,0.1,0.3,0.4,0.3l1-0.1c0,0,1.7-0.1,1.7-0.1l1.3,0.1l0.5,0l0.6,0.1c0.2,0,0.3-0.1,0.3-0.4
		c0-0.2-0.1-0.2-0.3-0.3l-0.1,0c-1.1-0.3-1.2-0.3-1.4-0.7c-0.3-0.7-0.3-3-0.3-3.8c0,0,0-2.2,0-2.8c0.8,0.1,1.6,0.1,2.5,0.1
		c0.1,0.1,1.4,2,1.4,2h0c2.3,3.3,4.8,6.5,8.4,6.5c0.5,0,0.8-0.1,0.8-0.4C96.4,78.6,96.2,78.5,96,78.5L96,78.5L96,78.5z M89.5,66.5
		c0,1.5-0.7,3.3-4.3,3.3c-1.1,0-1.6-0.1-1.9-0.2c0-2.1,0-6,0.3-6.5c0.1-0.3,1.2-0.5,1.9-0.5C88.5,62.6,89.5,65.3,89.5,66.5
		L89.5,66.5z"/>
	<path class="st7" d="M113.2,78.5c-2.5-0.2-4.9-3.8-7.2-7.3c0,0-0.3-0.4-0.5-0.7c2.2-0.9,3.4-2.4,3.4-4.3c0-2.2-2-4.5-5.8-4.5
		c-0.4,0-1.4,0.1-2.4,0.2L98.6,62l-1.8,0l0,0.1l0,0.2l0,0.3l0.2,0c1.6,0.2,1.7,0.2,1.7,5.1v5.6c0,4.1-0.3,4.2-1.2,4.4
		c-0.4,0.1-0.6,0.2-0.6,0.5c0,0.2,0.1,0.3,0.4,0.3l1-0.1c0,0,1.7-0.1,1.7-0.1l1.3,0.1l0.5,0l0.6,0.1c0.2,0,0.3-0.1,0.3-0.4
		c0-0.2-0.1-0.2-0.3-0.3l-0.1,0c-1.1-0.3-1.2-0.3-1.4-0.7c-0.2-0.4-0.3-1.8-0.3-3.8c0,0,0-2.2,0-2.8c0.8,0.1,1.6,0.1,2.5,0.1
		c0.1,0.1,1.4,2,1.4,2c2.3,3.3,4.8,6.5,8.4,6.5c0.5,0,0.8-0.1,0.8-0.4C113.6,78.6,113.4,78.5,113.2,78.5L113.2,78.5L113.2,78.5z
		 M106.8,66.5c0,1.5-0.7,3.3-4.3,3.3c-1.1,0-1.6-0.1-1.9-0.2c0-2.1,0-6,0.3-6.5c0.1-0.3,1.2-0.5,1.9-0.5
		C105.8,62.6,106.8,65.3,106.8,66.5L106.8,66.5z"/>
	<path class="st7" d="M118.9,76c0,0-0.1-4.4-0.1-4.4c0,0.1,0,0.1-0.1,0.1c0.1,0,0.1-0.1,0.1-0.1v-2.3c0-4.3,0.2-5.7,0.4-6
		c0.2-0.4,0.5-0.5,2-0.5h0.2v-0.9l-1.5,0l-0.3,0c0,0-1.8,0.1-1.8,0.1L116,62c0,0-1.8-0.1-1.8-0.1l-0.2,0l0,0.2v0.7l0.2,0
		c2.3,0,2.4,0.4,2.5,2.1c0,0,0,1,0,1l0.1,4.4c0,1.3,0,5.5-0.4,6.5c-0.2,0.5-0.4,0.9-2.4,1l-0.2,0l0,0.8l1.5,0l2.3,0l3.5,0.1l0-0.1
		l0.1-0.7l-0.2,0C118.9,77.7,118.9,77.4,118.9,76L118.9,76L118.9,76z M118.7,71.7L118.7,71.7C118.7,71.7,118.7,71.7,118.7,71.7
		C118.7,71.7,118.7,71.7,118.7,71.7L118.7,71.7z"/>
	<path class="st7" d="M130,61.6c-4.8,0-8.9,3.9-8.9,8.6c0,3.5,2.7,8.6,8.5,8.6c5,0,8.9-3.8,8.9-8.7C138.5,64.9,134.1,61.6,130,61.6
		L130,61.6L130,61.6z M130.7,77.6c-3.9,0-7.3-3.9-7.3-8.3c0-4.2,3-6.5,5.9-6.5c3.9,0,7.1,3.8,7.1,8.4
		C136.3,75.6,133.4,77.6,130.7,77.6L130.7,77.6z"/>
	<path class="st7" d="M154.5,62l-0.4-0.4l-0.1,0.1c-0.2,0.2-0.3,0.3-1,0.3l-3,0.1h-6.4c-2.1,0-3.1,0-3.7-0.1
		c-0.5-0.1-0.6-0.2-0.9-0.4l-0.2-0.2l-0.1,0.2l-1.1,3c0,0,0,0,0,0c0,0,0,0,0,0c0,0,0,0,0,0c0,0,0,0,0,0c0,0,0,0.1,0.1,0.1
		c0,0,0,0,0,0v0l0.6,0.1l0.1-0.1c0.5-1.2,0.7-1.6,4.2-1.6c1.1,0,1.8,0,2.3,0.1c0.3,0.8,0.3,2.1,0.3,6.5l-0.1,4.8l0,0.6l-0.1,1.4
		c0,0.9,0,1-1.7,1.4c0,0-0.3,0.1-0.3,0.1l-0.7,0.2l0.1,0.2c0.1,0.3,0.2,0.5,0.6,0.5l0.5-0.1l0.5-0.1c1.5-0.2,2.1-0.2,2.7-0.2
		l1.4,0.1c0,0,0.9,0.1,0.9,0.1l0.5,0l0.7,0l0-0.1l0-0.4c0-0.2-0.2-0.3-0.6-0.3l-0.1,0c-1.9-0.2-1.9-0.2-1.9-4.4l0.1-6l0.1-2.7l0-1.2
		c0-0.3,0-0.3,1.8-0.3c2.6,0,3.4,0.3,3.8,0.6c0,0,0,0.1,0,0.1L153,65l0.2,0l0.7-0.1l0-0.1c0.1-0.6,0.4-1.8,0.7-2.6l0-0.1L154.5,62
		L154.5,62z"/>
	<path class="st7" d="M172.7,61.9l-0.4-0.4l-0.1,0.1c-0.2,0.2-0.3,0.3-1,0.3l-3.1,0.1h-6.5c-2.1,0-3.1,0-3.7-0.1
		c-0.5-0.1-0.6-0.2-0.9-0.4l-0.2-0.2l-0.1,0.2l-1.1,3c0,0,0,0,0,0c0,0,0,0,0,0c0,0,0,0,0,0c0,0,0,0,0,0c0,0,0,0.1,0.1,0.1
		c0,0,0,0,0,0l0,0l0.6,0.1l0.1-0.1c0.5-1.2,0.7-1.6,4.2-1.6c1.1,0,1.8,0,2.3,0.1c0.3,0.8,0.3,2.1,0.3,6.6l-0.1,4.8l0,0.6l-0.1,1.4
		c0,0.9,0,1-1.8,1.4c0,0-0.3,0.1-0.3,0.1l-0.7,0.2l0.1,0.2c0.1,0.3,0.2,0.5,0.6,0.5l0.5-0.1l0.5-0.1c1.5-0.2,2.1-0.2,2.7-0.2
		l1.4,0.1c0,0,0.9,0.1,0.9,0.1l0.5,0l0.7,0l0-0.1l0-0.4c0-0.2-0.2-0.3-0.6-0.3l-0.1,0c-1.9-0.2-1.9-0.2-1.9-4.5l0.1-6.1l0.1-2.7
		l0.1-1.3c0-0.3,0-0.3,1.8-0.3c2.6,0,3.5,0.3,3.9,0.6c0,0.1,0,0.1,0,0.1l-0.1,1.2l0.2,0l0.7-0.1l0-0.1c0.1-0.6,0.4-1.8,0.7-2.6
		l0-0.1L172.7,61.9L172.7,61.9z"/>
	<path class="st7" d="M174.3,75.8c0.8,0,1.5,0.6,1.5,1.4c0,0.9-0.7,1.4-1.5,1.4c-0.8,0-1.5-0.6-1.5-1.4
		C172.8,76.4,173.5,75.8,174.3,75.8L174.3,75.8L174.3,75.8z M174.3,78.4c0.6,0,1.1-0.5,1.1-1.1c0-0.7-0.5-1.1-1.1-1.1
		c-0.6,0-1.1,0.5-1.1,1.1C173.2,77.9,173.7,78.4,174.3,78.4L174.3,78.4L174.3,78.4z M173.7,76.4h0.6c0.4,0,0.6,0.1,0.6,0.5
		c0,0.3-0.2,0.4-0.4,0.4l0.4,0.7h-0.3l-0.4-0.7H174v0.7h-0.3V76.4L173.7,76.4L173.7,76.4z M174,77.1h0.3c0.2,0,0.3,0,0.3-0.2
		c0-0.2-0.2-0.2-0.3-0.2H174V77.1L174,77.1z"/>
</g>
<g>
	<path class="st8" d="M37.9,95.3v-1.3c0-0.4-0.1-0.7-0.2-0.8c-0.1-0.1-0.4-0.2-0.7-0.2c-0.2,0-0.3-0.1-0.4-0.2
		c0-0.1,0.1-0.2,0.2-0.2c0.1,0,0.2,0,0.5,0s0.4,0,0.5,0c0.8,0,1.4,0,1.8,0c0,0,0.1,0,0.1,0s0.1,0,0.1,0.1l0,0c0,0.1-0.1,0.2-0.2,0.2
		c-0.4,0.1-0.5,0.4-0.5,1v2c0,0.1,0,0.1,0,0.3c0,0.1,0,0.2,0,0.3c0,0.1-0.1,0.2-0.3,0.2c-0.1,0-0.4,0.1-0.8,0.4
		c-0.4,0.2-0.9,0.4-1.5,0.7s-1.1,0.3-1.7,0.3c-1.5,0-2.8-0.5-3.7-1.4c-0.9-0.9-1.4-2.2-1.4-3.7c0-1.4,0.5-2.6,1.5-3.6
		c1-1,2.2-1.5,3.6-1.5c0.4,0,0.7,0,1.1,0.1c0.4,0.1,0.7,0.1,0.9,0.2s0.5,0.2,0.7,0.3s0.4,0.2,0.5,0.2c0.1,0.1,0.2,0.1,0.2,0.1
		c0,0,0.1,0,0.2-0.1c0.1-0.1,0.2-0.1,0.2-0.1c0.1,0,0.1,0.1,0.1,0.2c0,0.1,0,0.5,0.1,1.3c0.1,0.5,0.1,0.8,0.1,0.8
		c0,0.1,0,0.2-0.1,0.2c-0.1,0-0.1,0-0.1-0.1c-0.4-0.7-0.9-1.4-1.7-1.9c-0.8-0.5-1.6-0.7-2.4-0.7c-0.8,0-1.6,0.2-2.1,0.7
		c-0.6,0.4-1,1-1.3,1.7c-0.3,0.7-0.4,1.4-0.4,2.2c0,0.8,0.2,1.6,0.5,2.3c0.3,0.7,0.8,1.3,1.4,1.8c0.6,0.5,1.4,0.7,2.2,0.7
		c0.5,0,1-0.1,1.5-0.3c0.5-0.2,0.8-0.5,1.2-0.9C37.9,96.1,37.9,95.8,37.9,95.3z"/>
	<path class="st8" d="M47,92.8l2,2.9c0,0,0.1,0.2,0.3,0.4c0.1,0.2,0.2,0.3,0.3,0.4s0.2,0.2,0.3,0.3c0.1,0.2,0.3,0.3,0.4,0.3
		c0.1,0.1,0.2,0.1,0.4,0.2c0.2,0.1,0.3,0.1,0.5,0.1c0.2,0,0.3,0,0.3,0.1c0,0.1-0.1,0.1-0.3,0.2c-0.2,0-0.3,0.1-0.4,0.1
		c-0.1,0-0.2,0-0.3,0c-0.5,0-0.9-0.1-1.2-0.4c-0.3-0.3-0.7-0.6-1-1.1l-1.8-2.7c-0.1-0.1-0.2-0.3-0.3-0.3s-0.3-0.1-0.4-0.1
		c-0.1,0-0.3,0-0.5,0c-0.4,0-0.7,0.1-0.7,0.3v2.3c0,0.6,0.1,1,0.2,1.3c0.2,0.3,0.5,0.5,1.1,0.5c0.2,0,0.2,0.1,0.3,0.1
		c0,0.1-0.1,0.2-0.2,0.2c-0.2,0-0.5,0-0.9,0c-0.4,0-0.7,0-0.9,0c-0.7,0-1.2,0-1.5,0.1c-0.1,0-0.2,0-0.2-0.1c0-0.1,0.1-0.1,0.2-0.1
		c0.4-0.1,0.6-0.3,0.8-0.6s0.2-0.7,0.2-1.1v-0.5v-4.8v-1.1c0-0.3,0-0.5-0.1-0.7c-0.1-0.2-0.2-0.3-0.3-0.4c-0.1-0.1-0.2-0.1-0.3-0.2
		c-0.1,0-0.2-0.1-0.3-0.1c-0.1,0-0.2,0-0.2,0c-0.1,0-0.1-0.1-0.1-0.1c0-0.1,0.1-0.2,0.2-0.2c0.1,0,0.3,0,0.6,0c0.3,0,0.5,0,0.6,0
		c0.2,0,0.6,0,1.1,0c0.5,0,0.8,0,1.1,0c2.1,0,3.3,0.8,3.4,2.4c0,0.6-0.2,1.1-0.5,1.6C48,92.1,47.5,92.5,47,92.8z M44.9,92.6h0.8
		c0.6,0,1.1-0.2,1.5-0.5c0.4-0.3,0.5-0.8,0.5-1.5c0-0.7-0.3-1.3-0.8-1.7c-0.5-0.4-1.2-0.6-1.9-0.6c-0.5,0-0.7,0.2-0.7,0.6v0.3v2.9
		c0,0.2,0,0.4,0.1,0.4C44.5,92.6,44.6,92.6,44.9,92.6z"/>
	<path class="st8" d="M57.6,93.9h-2.6c-0.3,0-0.5,0-0.6,0.1c-0.1,0.1-0.2,0.3-0.4,0.6c0,0-0.1,0.2-0.3,0.6c-0.2,0.4-0.3,0.7-0.4,0.9
		c-0.1,0.2-0.1,0.4-0.1,0.6c0,0.3,0.1,0.4,0.2,0.5s0.4,0.2,0.6,0.2c0.1,0,0.2,0.1,0.2,0.2c0,0.1-0.1,0.1-0.2,0.1c-0.2,0-0.6,0-1,0
		c-0.5,0-0.8,0-1,0c0,0-0.1,0-0.1,0c-0.1,0-0.2,0-0.2,0c-0.2,0-0.3,0-0.3-0.1c0-0.1,0-0.1,0.1-0.1c0.1,0,0.2-0.1,0.3-0.1
		c0.1,0,0.2-0.1,0.3-0.2c0.1-0.1,0.1-0.1,0.2-0.2s0.1-0.1,0.2-0.2s0.1-0.2,0.1-0.2c0,0,0.1-0.2,0.1-0.3c0.1-0.2,0.1-0.3,0.1-0.3
		l3.7-8.3c0.1-0.1,0.1-0.2,0.2-0.2c0.1,0,0.2,0.1,0.2,0.2l3.1,7.9c0,0,0,0.1,0.1,0.3c0.1,0.2,0.1,0.3,0.1,0.3c0,0,0,0.1,0.1,0.2
		c0.1,0.1,0.1,0.2,0.1,0.3c0,0,0.1,0.1,0.1,0.2c0.1,0.1,0.1,0.2,0.2,0.2c0.1,0,0.1,0.1,0.2,0.1c0.1,0.1,0.2,0.1,0.3,0.1
		s0.2,0.1,0.3,0.1c0.1,0,0.2,0.1,0.2,0.2s0,0.1-0.1,0.1c-0.1,0-0.3,0-0.5,0s-0.4,0-0.5,0c-0.2,0-0.6,0-1.1,0c-0.5,0-0.8,0-1.1,0
		c-0.1,0-0.2,0-0.2-0.1c0-0.1,0.1-0.1,0.4-0.2c0.3-0.1,0.4-0.2,0.4-0.4c0-0.3-0.1-0.8-0.4-1.6l0,0.1c0,0,0-0.1-0.1-0.4
		c-0.1-0.2-0.2-0.5-0.3-0.7c-0.1-0.2-0.2-0.4-0.2-0.4c-0.1,0-0.2-0.1-0.3-0.1H57.6z M57.6,92.8l-1.1-2.9c-0.1-0.3-0.1-0.4-0.2-0.4
		c0,0-0.1,0-0.1,0.1l-1.4,3.1c-0.1,0.1-0.1,0.2-0.1,0.3c0,0.1,0.1,0.2,0.4,0.2h0.2h2h0.2c0.2,0,0.4-0.1,0.4-0.2
		C57.7,93.1,57.7,93,57.6,92.8z"/>
	<path class="st8" d="M72.4,90.6v4.6c0,0,0,0.1,0,0.2c0,0.1,0,0.3,0,0.4c0,0.2,0,0.3,0,0.5c0,1-0.1,1.4-0.3,1.4c0,0-0.1,0-0.1,0
		s-0.1,0-0.1-0.1s0,0-0.1-0.1c0,0,0-0.1-0.1-0.1l-6.1-7c-0.1-0.1-0.1-0.1-0.2-0.1c-0.1,0-0.1,0.1-0.1,0.2v0.1v4.9v0.2
		c0,0.3,0,0.6,0,0.7c0,0.2,0.1,0.3,0.3,0.5c0.2,0.2,0.4,0.3,0.7,0.3c0.2,0,0.2,0.1,0.2,0.2c0,0.1,0,0.1-0.1,0.1
		c-0.1,0-0.3,0-0.8-0.1c-0.4,0-0.8-0.1-1-0.1c-0.1,0-0.3,0-0.5,0c-0.2,0-0.4,0-0.5,0c-0.1,0-0.2,0-0.2-0.1v0c0,0,0,0,0,0
		c0-0.1,0.1-0.1,0.2-0.2c0.1,0,0.3-0.1,0.4-0.2c0.2-0.1,0.3-0.3,0.4-0.6c0.1-0.3,0.2-0.7,0.2-1.2v-4.7c0-0.3,0-0.6-0.1-0.9
		c0-0.3-0.1-0.6-0.2-0.9s-0.3-0.5-0.5-0.7c-0.2-0.2-0.5-0.3-0.8-0.4c-0.1,0-0.2-0.1-0.2-0.1c0-0.1,0-0.2,0.1-0.2c0.1,0,0.4,0,0.7,0
		c0.3,0,0.5,0,0.7,0c0.1,0,0.3,0.1,0.4,0.2l6.6,7.5c0.1,0.1,0.1,0.2,0.2,0.2c0.1,0,0.1-0.1,0.1-0.3V92c0-0.1,0-0.4,0-0.7
		c0-0.3,0-0.5,0-0.7c0-0.6-0.1-1.1-0.2-1.6c-0.1-0.2-0.2-0.4-0.4-0.6c-0.2-0.1-0.3-0.2-0.5-0.3c-0.2,0-0.3-0.1-0.5-0.1
		c-0.1,0-0.2-0.1-0.2-0.2c0-0.1,0-0.1,0.1-0.1c0.2,0,0.4,0,0.7,0s0.6,0,0.7,0h0.4c0.1,0,0.3,0,0.5,0c0.2,0,0.4,0,0.5,0
		c0.1,0,0.2,0.1,0.2,0.2c0,0-0.1,0.1-0.3,0.2s-0.3,0.2-0.4,0.3c-0.1,0.2-0.2,0.7-0.2,1.2c0,0.1,0,0.3,0,0.5
		C72.4,90.4,72.4,90.5,72.4,90.6z"/>
	<path class="st8" d="M76.7,95.8v-6.2c0-0.4-0.1-0.7-0.2-1c-0.1-0.2-0.3-0.4-0.5-0.4c-0.2,0-0.3-0.1-0.5-0.1c-0.1,0-0.2-0.1-0.2-0.2
		c0-0.1,0.1-0.1,0.2-0.1c0.1,0,0.2,0,0.3,0s0.3,0,0.4,0s0.2,0,0.3,0c0.3,0,0.8,0,1.4-0.1c0.6,0,1.1-0.1,1.4-0.1
		c1.7,0,3.1,0.4,4.1,1.2c0.5,0.4,1,1,1.3,1.6c0.3,0.7,0.5,1.3,0.5,2c0,1.6-0.5,2.8-1.4,3.8c-1,1-2.2,1.5-3.8,1.5
		c-0.3,0-0.6,0-1.1-0.1c-0.5,0-0.9-0.1-1.1-0.1c-0.3,0-0.9,0-1.8,0.1c-0.1,0-0.2,0-0.2-0.1c0-0.1,0.1-0.1,0.2-0.2
		c0.1,0,0.2-0.1,0.3-0.1c0.1,0,0.2-0.2,0.3-0.4s0.2-0.5,0.2-0.9V95.8z M77.8,89v7.3c0,0.2,0,0.4,0.1,0.5c0.1,0.1,0.2,0.2,0.4,0.3
		c0.6,0.2,1.3,0.3,1.9,0.3c1.2,0,2.2-0.4,2.9-1.2c0.7-0.8,1-1.8,1-3.1c0-1.5-0.4-2.7-1.3-3.6s-2-1.4-3.5-1.4c-0.7,0-1.1,0.1-1.3,0.2
		C77.9,88.5,77.8,88.7,77.8,89z"/>
	<path class="st8" d="M97.8,92.8l2,2.9c0,0,0.1,0.2,0.3,0.4c0.1,0.2,0.2,0.3,0.3,0.4c0.1,0.1,0.2,0.2,0.3,0.3
		c0.1,0.2,0.3,0.3,0.4,0.3s0.2,0.1,0.4,0.2c0.2,0.1,0.3,0.1,0.5,0.1c0.2,0,0.3,0,0.3,0.1c0,0.1-0.1,0.1-0.3,0.2
		c-0.2,0-0.3,0.1-0.4,0.1c-0.1,0-0.2,0-0.3,0c-0.5,0-0.9-0.1-1.2-0.4c-0.3-0.3-0.7-0.6-1-1.1L97,93.6c-0.1-0.1-0.2-0.3-0.3-0.3
		s-0.3-0.1-0.4-0.1s-0.3,0-0.5,0c-0.4,0-0.7,0.1-0.7,0.3v2.3c0,0.6,0.1,1,0.2,1.3c0.2,0.3,0.5,0.5,1.1,0.5c0.2,0,0.2,0.1,0.3,0.1
		c0,0.1-0.1,0.2-0.2,0.2c-0.2,0-0.5,0-0.9,0c-0.4,0-0.7,0-0.9,0c-0.7,0-1.2,0-1.5,0.1c-0.1,0-0.2,0-0.2-0.1c0-0.1,0.1-0.1,0.2-0.1
		c0.4-0.1,0.6-0.3,0.8-0.6c0.1-0.3,0.2-0.7,0.2-1.1v-0.5v-4.8v-1.1c0-0.3,0-0.5-0.1-0.7c-0.1-0.2-0.2-0.3-0.3-0.4
		c-0.1-0.1-0.2-0.1-0.3-0.2c-0.1,0-0.2-0.1-0.3-0.1s-0.2,0-0.2,0c-0.1,0-0.1-0.1-0.1-0.1c0-0.1,0.1-0.2,0.2-0.2c0.1,0,0.3,0,0.6,0
		c0.3,0,0.5,0,0.6,0c0.2,0,0.6,0,1.1,0c0.5,0,0.8,0,1.1,0c2.1,0,3.3,0.8,3.4,2.4c0,0.6-0.2,1.1-0.5,1.6
		C98.8,92.1,98.3,92.5,97.8,92.8z M95.7,92.6h0.8c0.6,0,1.1-0.2,1.5-0.5c0.4-0.3,0.5-0.8,0.5-1.5c0-0.7-0.3-1.3-0.8-1.7
		c-0.5-0.4-1.2-0.6-1.9-0.6c-0.5,0-0.7,0.2-0.7,0.6v0.3v2.9c0,0.2,0,0.4,0.1,0.4C95.3,92.6,95.4,92.6,95.7,92.6z"/>
	<path class="st8" d="M108.3,93.9h-2.6c-0.3,0-0.5,0-0.6,0.1c-0.1,0.1-0.2,0.3-0.4,0.6c0,0-0.1,0.2-0.3,0.6
		c-0.2,0.4-0.3,0.7-0.4,0.9c-0.1,0.2-0.1,0.4-0.1,0.6c0,0.3,0.1,0.4,0.2,0.5c0.1,0.1,0.3,0.2,0.6,0.2c0.1,0,0.2,0.1,0.2,0.2
		c0,0.1-0.1,0.1-0.2,0.1c-0.2,0-0.6,0-1,0c-0.5,0-0.8,0-1,0c0,0-0.1,0-0.1,0s-0.2,0-0.2,0c-0.2,0-0.3,0-0.3-0.1c0-0.1,0-0.1,0.1-0.1
		c0.1,0,0.2-0.1,0.3-0.1s0.2-0.1,0.3-0.2c0.1-0.1,0.1-0.1,0.2-0.2c0,0,0.1-0.1,0.2-0.2c0.1-0.1,0.1-0.2,0.1-0.2c0,0,0.1-0.2,0.1-0.3
		c0.1-0.2,0.1-0.3,0.1-0.3l3.7-8.3c0.1-0.1,0.1-0.2,0.2-0.2c0.1,0,0.2,0.1,0.2,0.2l3.1,7.9c0,0,0,0.1,0.1,0.3
		c0.1,0.2,0.1,0.3,0.1,0.3c0,0,0,0.1,0.1,0.2c0.1,0.1,0.1,0.2,0.1,0.3c0,0,0.1,0.1,0.1,0.2c0.1,0.1,0.1,0.2,0.2,0.2
		c0.1,0,0.1,0.1,0.2,0.1c0.1,0.1,0.2,0.1,0.3,0.1s0.2,0.1,0.3,0.1c0.1,0,0.2,0.1,0.2,0.2s0,0.1-0.1,0.1c-0.1,0-0.3,0-0.5,0
		s-0.4,0-0.5,0c-0.2,0-0.6,0-1.1,0c-0.5,0-0.8,0-1.1,0c-0.1,0-0.2,0-0.2-0.1c0-0.1,0.1-0.1,0.4-0.2c0.3-0.1,0.4-0.2,0.4-0.4
		c0-0.3-0.1-0.8-0.4-1.6l0,0.1c0,0,0-0.1-0.1-0.4s-0.2-0.5-0.3-0.7c-0.1-0.2-0.2-0.4-0.2-0.4c-0.1,0-0.2-0.1-0.3-0.1H108.3z
		 M108.4,92.8l-1.1-2.9c-0.1-0.3-0.1-0.4-0.2-0.4c0,0-0.1,0-0.1,0.1l-1.4,3.1c-0.1,0.1-0.1,0.2-0.1,0.3c0,0.1,0.1,0.2,0.4,0.2h0.2h2
		h0.2c0.2,0,0.4-0.1,0.4-0.2C108.5,93.1,108.5,93,108.4,92.8z"/>
	<path class="st8" d="M116.3,89v6c0,0.1,0,0.3,0,0.5s0,0.4,0,0.5c0,0.5,0.1,0.9,0.3,1.1c0.2,0.2,0.5,0.4,1,0.4c0.1,0,0.2,0,0.2,0.1
		c0,0.1-0.1,0.2-0.3,0.2c-0.1,0-0.3,0-0.5,0c-0.3,0-0.8,0-1.4,0s-1.1,0-1.4,0c-0.1,0-0.2,0-0.2-0.1c0-0.1,0.1-0.1,0.2-0.2
		c0.2,0,0.4-0.1,0.5-0.2c0.1-0.1,0.2-0.3,0.3-0.5c0.1-0.2,0.1-0.4,0.1-0.6s0-0.4,0-0.7v-0.6v-4.4v-0.6c0-0.5,0-0.8-0.1-1.1
		c-0.1-0.3-0.2-0.4-0.3-0.5c-0.1-0.1-0.2-0.1-0.4-0.1c-0.1,0-0.2,0-0.3-0.1c-0.1,0-0.1-0.1-0.1-0.1c0-0.1,0.1-0.2,0.2-0.2
		c0.1,0,0.3,0,0.5,0.1c0.2,0,0.4,0.1,0.5,0.1c0.2,0,0.6,0,1.1-0.1c0.5,0,0.8-0.1,1.1-0.1c0.6,0,1.1,0.1,1.6,0.3
		c0.5,0.2,0.9,0.5,1.3,0.9c0.4,0.4,0.6,0.9,0.6,1.5c0,0.8-0.3,1.5-0.9,2c-0.6,0.6-1.3,0.8-2.1,0.8c-0.1,0-0.2,0-0.4,0
		c-0.2,0-0.3,0-0.5-0.1c-0.2-0.1-0.3-0.1-0.3-0.2c0,0,0-0.1,0.1-0.1c0.1,0,0.2,0,0.4,0c0.2,0,0.3,0,0.4,0c0.7,0,1.2-0.2,1.7-0.6
		c0.4-0.4,0.6-0.9,0.6-1.6c0-0.7-0.3-1.3-0.9-1.8c-0.6-0.5-1.2-0.7-2-0.7c-0.2,0-0.4,0-0.4,0.1c-0.1,0.1-0.1,0.2-0.1,0.4L116.3,89z"
		/>
	<path class="st8" d="M124.9,90v5.4c0,0.3,0,0.5,0,0.7c0,0.2,0.1,0.4,0.1,0.6c0.1,0.2,0.2,0.4,0.4,0.5c0.2,0.1,0.4,0.2,0.6,0.3
		c0.2,0,0.4,0.1,0.4,0.2c0,0.1-0.1,0.2-0.2,0.2c-0.1,0-0.3,0-0.5,0c-0.2,0-0.4,0-0.5,0c-0.3,0-0.6,0-1.1,0c-0.5,0-0.9,0-1.1,0
		c-0.1,0-0.2,0-0.2-0.1c0-0.1,0.1-0.1,0.2-0.2c0.1,0,0.2-0.1,0.4-0.1c0.1,0,0.3-0.2,0.4-0.4c0.1-0.2,0.2-0.6,0.2-1v-6.2
		c0-0.5-0.1-0.9-0.2-1.2s-0.4-0.4-0.9-0.5c-0.1,0-0.2-0.1-0.2-0.1c0-0.1,0.1-0.2,0.2-0.2c0.2,0,0.4,0,0.7,0c0.3,0,0.6,0,0.7,0
		c0.2,0,0.5,0,0.8,0c0.4,0,0.6,0,0.8,0c0.1,0,0.1,0,0.1,0.1c0,0.1-0.1,0.2-0.2,0.2c-0.4,0.2-0.7,0.4-0.8,0.6
		C125,88.9,124.9,89.3,124.9,90L124.9,90z"/>
	<path class="st8" d="M129.9,95.8v-6.2c0-0.4-0.1-0.7-0.2-1s-0.3-0.4-0.5-0.4c-0.2,0-0.3-0.1-0.5-0.1c-0.1,0-0.2-0.1-0.2-0.2
		c0-0.1,0.1-0.1,0.2-0.1c0.1,0,0.2,0,0.3,0c0.1,0,0.3,0,0.4,0s0.2,0,0.3,0c0.3,0,0.8,0,1.4-0.1c0.6,0,1.1-0.1,1.4-0.1
		c1.7,0,3.1,0.4,4.1,1.2c0.5,0.4,1,1,1.3,1.6s0.5,1.3,0.5,2c0,1.6-0.5,2.8-1.4,3.8c-1,1-2.2,1.5-3.8,1.5c-0.3,0-0.6,0-1.1-0.1
		c-0.5,0-0.9-0.1-1.1-0.1c-0.3,0-0.9,0-1.8,0.1c-0.1,0-0.2,0-0.2-0.1c0-0.1,0.1-0.1,0.2-0.2c0.1,0,0.2-0.1,0.3-0.1
		c0.1,0,0.2-0.2,0.3-0.4s0.2-0.5,0.2-0.9V95.8z M131,89v7.3c0,0.2,0,0.4,0.1,0.5c0.1,0.1,0.2,0.2,0.4,0.3c0.6,0.2,1.3,0.3,1.9,0.3
		c1.2,0,2.2-0.4,2.9-1.2c0.7-0.8,1-1.8,1-3.1c0-1.5-0.4-2.7-1.3-3.6s-2-1.4-3.5-1.4c-0.7,0-1.1,0.1-1.3,0.2
		C131.1,88.5,131,88.7,131,89z"/>
	<path class="st8" d="M140.9,90.2c0-0.8,0.4-1.4,1-1.9c0.6-0.4,1.3-0.7,2.2-0.7c0.4,0,0.9,0.1,1.2,0.2c0.4,0.2,0.6,0.2,0.7,0.2
		c0,0,0.1,0,0.2-0.1s0.1-0.1,0.2-0.1c0.1,0,0.2,0.1,0.2,0.4s0,0.6,0.1,1c0.1,0.4,0.1,0.7,0.1,0.8c0,0.1-0.1,0.2-0.2,0.2
		c-0.1,0-0.2-0.1-0.2-0.3c-0.2-0.6-0.6-1-1.1-1.3c-0.5-0.3-1.1-0.5-1.7-0.5c-0.5,0-0.9,0.2-1.3,0.5c-0.4,0.3-0.6,0.7-0.6,1.2
		c0,0.5,0.2,0.9,0.6,1.3c0.4,0.3,0.8,0.6,1.3,0.7c0.5,0.2,1.1,0.4,1.6,0.5c0.5,0.2,1,0.5,1.3,0.9c0.4,0.4,0.6,0.9,0.6,1.6
		c0,1-0.3,1.7-1,2.3c-0.7,0.6-1.5,0.8-2.5,0.8c-0.4,0-0.8,0-1.2-0.1c-0.5-0.1-0.8-0.2-1-0.4c-0.1-0.1-0.2-0.4-0.4-1.1
		c-0.2-0.6-0.3-1-0.3-1.2c0,0,0-0.1,0.1-0.1c0,0,0.1-0.1,0.1-0.1c0,0,0.1,0.1,0.2,0.3c0.1,0.2,0.2,0.4,0.3,0.6
		c0.1,0.2,0.3,0.5,0.5,0.7c0.2,0.2,0.5,0.4,0.9,0.6c0.4,0.2,0.8,0.3,1.2,0.3c0.6,0,1.2-0.2,1.7-0.6s0.7-0.9,0.7-1.5
		c0-0.5-0.2-0.9-0.6-1.2s-0.8-0.6-1.4-0.7c-0.5-0.2-1.1-0.4-1.6-0.6c-0.5-0.2-1-0.5-1.4-0.9C141.1,91.4,140.9,90.9,140.9,90.2z"/>
</g>
</svg>
