<svg id="Layer_1" data-name="Layer 1" xmlns="http://www.w3.org/2000/svg" viewBox="0 0 1181 1181"><defs><style>.cls-1{fill:#fff;}.cls-2{fill:#f60;}</style></defs><title>Aesthetics Architects - Website - Logo</title><path class="cls-1" d="M996.28,662.45H204.19c-5.53-7.73-9.19-16.24-12-25.15-5-15.75-8-31.91-10-48.3-2.72-21.52-3.26-43.13-3.39-64.77-.28-43.21,7.09-85.16,20.8-126A485.86,485.86,0,0,1,299.61,226.82,447.69,447.69,0,0,1,390.44,149c43.92-28.34,91.23-48.7,142.53-59.35a265.52,265.52,0,0,1,70.56-5.17c35,2.17,67.75,11.92,97,31.83,2.9,2,5.8,2.15,9,2.15H996.28ZM956.73,631a23.28,23.28,0,0,0-1.74-2.31q-7.81-7.74-15.66-15.44-42.6-41.85-85.21-83.7c-18.88-18.58-37.65-37.26-56.53-55.84Q762.33,439,727,404.44q-22.11-21.71-44.14-43.5a9.74,9.74,0,0,0-7.91-3.2,104.29,104.29,0,0,1-32.57-4c-15.06-4.17-29.51-10-41.39-20.29-21.62-18.71-28.71-42.93-24.3-70.69.67-4.24-.2-6.75-3.1-9.57q-28.67-27.87-57.09-56-21.72-21.39-43.37-42.85c-1.94-1.92-4-3.73-6.55-6.11V631ZM453.58,631c1.61-4.54,1.72-476.22.1-481a30.69,30.69,0,0,0-4,1.6c-14.78,8.35-30,16.09-44.2,25.27-38.56,24.83-71.73,55.75-100.34,91.56-37,46.33-64.28,97.79-81,154.74a342.86,342.86,0,0,0-14.17,85.94c-.78,24.47-.35,48.95,2.64,73.33,1.74,14.23,4.13,28.3,8.22,42,.69,2.32,1.73,4.54,2.5,6.54ZM694,356.18,965.56,623.61c1.22-7,.86-470-.31-473.62H739c0,.53-.05.94.11,1.16,1.06,1.49,2.16,3,3.28,4.4C756.67,174,768,194.09,775.12,216.38c8.22,25.69,9.14,51.4-1.44,76.67-9.93,23.69-25.71,42.24-49.28,53.48A126.38,126.38,0,0,1,694,356.18Zm-51.65-81c0-4.26.23-7.92,0-11.55-.51-6.64-4.15-10.22-10.82-10.88a54.86,54.86,0,0,0-7-.13c-9.83.3-14,3.63-17,13-1,3.13-.47,5.28,1.91,7.53,7.14,6.75,14.11,13.68,21.12,20.57,10,9.81,20,19.61,29.85,29.52,2,2,4.11,3.17,7,3,7-.39,14-.09,20.89-1.06,18.87-2.65,34.72-11,46.71-26.16,13.29-16.79,17.62-35.82,14.66-56.79-2.08-14.72-7.53-28.24-14.53-41.2-11.37-21-25.85-39.54-45-54.22a14.74,14.74,0,0,0-9.59-3.25q-98,.13-196,.06h-4.81l-.58,1.13,102.71,101.1c1.44-2.17,2.41-3.7,3.46-5.19,5.72-8.17,13.17-14.15,22.76-17a65.2,65.2,0,0,1,28.18-1.82,45.12,45.12,0,0,1,18.2,6.46c19,12,22,38.33,17.14,53.46C662,280.29,652.45,277.63,642.32,275.21Zm22.34-143,.36-.89c-2.68-1.22-5.34-2.5-8.05-3.64-21-8.88-43.06-12.65-65.69-12.86-26.29-.24-52,4.19-77.19,11.58-5.33,1.56-10.61,3.28-15.91,4.93l.23.88ZM640.45,319.2l-31.6-31.06C612.24,305.72,624.48,314.34,640.45,319.2Z"/><path class="cls-1" d="M191.56,917.17V902.23a37.42,37.42,0,0,1,3.86-.73c1.49-.13,3,0,4.5,0h809.79v15.72Z"/><path class="cls-1" d="M1003.77,713.45a18.74,18.74,0,1,1-37.47,0c0-10.46,8.74-19.22,19-19A18.82,18.82,0,0,1,1003.77,713.45Z"/><path class="cls-1" d="M209.06,1081.23c10.86,0,18.76,8,18.72,18.92,0,10.63-8,18.63-18.53,18.63a18.78,18.78,0,1,1-.18-37.55Z"/><path class="cls-1" d="M227.78,713.76a18.83,18.83,0,0,1-18.69,18.76,19.08,19.08,0,0,1,.14-38.16C219.68,694.37,227.93,703,227.78,713.76Z"/><path class="cls-1" d="M438.23,713.48a18.88,18.88,0,0,1,18.36-19.11,19.12,19.12,0,0,1,19.1,19c0,10.39-8.76,19.26-19,19.13A18.92,18.92,0,0,1,438.23,713.48Z"/><path class="cls-1" d="M985.41,1081.23c10.42.06,18.4,8.25,18.37,18.85a18.74,18.74,0,1,1-37.48-.21C966.31,1089.15,974.49,1081.17,985.41,1081.23Z"/><path class="cls-1" d="M456.86,1118.77a18.38,18.38,0,0,1-18.63-18.7c0-10.82,8.06-18.9,18.93-18.85a18.78,18.78,0,0,1-.3,37.55Z"/><path class="cls-2" d="M180.62,1050.36,212.55,946.3h11.91l34.05,104.06H245.91l-9.57-31.53h-35l-9.06,31.53Zm24-42.85h28.2l-8.71-28.82q-3.9-13.11-5.85-21.5a152.1,152.1,0,0,1-4.42,19.93Z"/><path class="cls-2" d="M279,1050.36V946.3h36.91a48.7,48.7,0,0,1,14.64,1.9q5.94,1.9,10.46,9.1t4.53,17.39q0,24.43-23.61,28.44,8.53,4.39,15.81,18.85l14.56,28.38H338.4l-11-21.72q-6.2-12-9.66-16.68t-6.48-6.2q-3-1.54-8.51-1.54H290v46.15Zm11-58.12h23.61q20.58,0,20.58-17.55,0-16.85-17.94-16.85H290Z"/><path class="cls-2" d="M433.18,1013.74l11,3.58q-7.11,34.83-34.44,34.83-20.23,0-29.63-15.87t-9.4-38.73q0-26.38,11.46-39.71t27.75-13.33q25.91,0,32.84,30.39L431.93,978q-5.5-21.78-22.18-21.78-14.9,0-21.29,11.75t-6.39,29.52q0,22.64,7.65,32.75t19.17,10.1Q428.55,1040.39,433.18,1013.74Z"/><path class="cls-2" d="M470.14,1050.36V946.3h11.18v42.85h43.11V946.3h11v104.06h-11v-49H481.32v49Z"/><path class="cls-2" d="M567.06,1050.36V946.3h11v104.06Z"/><path class="cls-2" d="M631,1050.36V958.49H603.46V946.3h66v12.19H642v91.87Z"/><path class="cls-2" d="M693.52,1050.36V946.3H753.7v12.19H704.52v32h46v12.19h-46v35.53h51.12v12.19Z"/><path class="cls-2" d="M841.37,1013.74l11,3.58q-7.11,34.83-34.44,34.83-20.23,0-29.63-15.87t-9.4-38.73q0-26.38,11.46-39.71t27.75-13.33q25.91,0,32.84,30.39L840.11,978q-5.5-21.78-22.18-21.78-14.9,0-21.29,11.75t-6.39,29.52q0,22.64,7.65,32.75t19.17,10.1Q836.73,1040.39,841.37,1013.74Z"/><path class="cls-2" d="M898.33,1050.36V958.49H870.81V946.3h66v12.19H909.33v91.87Z"/><path class="cls-2" d="M946.95,1016.88l10.27-1.14q1.26,12.41,8,18.17t16.7,5.77q10.27,0,15.42-5.2a16.88,16.88,0,0,0,5.16-12.3q0-7.53-4.79-11.54t-20.6-8.45q-15.94-4.66-21.53-12A27.3,27.3,0,0,1,950,973.17q0-14,8.6-21.32a30.75,30.75,0,0,1,20.64-7.34q15.47,0,23.18,8.88t8.23,22.21L1000,976.69q-1.6-20-20.23-20-19.19,0-19.19,15.55,0,6.45,4,9.89t15.88,6.74a125.08,125.08,0,0,1,18,6.34,25,25,0,0,1,10.48,9.64q4.18,6.66,4.18,16.2,0,14.68-9.06,22.89a31.38,31.38,0,0,1-21.84,8.21q-17.59,0-26.36-10T946.95,1016.88Z"/><path class="cls-2" d="M192.5,874.89,226.83,760h12.81l36.61,114.92H262.7L252.4,840.07H214.81l-9.74,34.82Zm25.76-47.32h30.33l-9.36-31.83Q235,781.26,232.93,772a171.88,171.88,0,0,1-4.75,22Z"/><path class="cls-2" d="M290.94,874.89V760h64.7v13.46H302.77v35.3H352.2v13.46H302.77v39.25h55v13.46Z"/><path class="cls-2" d="M373.58,837.91l11-1.26q1.35,13.7,8.59,20.07t18,6.37q11,0,16.58-5.74a18.9,18.9,0,0,0,5.54-13.58q0-8.32-5.15-12.74T406,821.7q-17.14-5.14-23.15-13.22a30.71,30.71,0,0,1-6-18.84q0-15.44,9.25-23.54a32.53,32.53,0,0,1,22.2-8.11q16.63,0,24.92,9.81t8.85,24.53l-11.41,1.2q-1.72-22.08-21.75-22.08-20.64,0-20.64,17.17,0,7.12,4.31,10.92T409.64,807A132,132,0,0,1,429,814a27.11,27.11,0,0,1,11.27,10.65q4.49,7.36,4.5,17.89,0,16.21-9.74,25.28a33.23,33.23,0,0,1-23.48,9.06q-18.91,0-28.35-11T373.58,837.91Z"/><path class="cls-2" d="M488.1,874.89V773.42H458.52V760h71v13.46H499.94V874.89Z"/><path class="cls-2" d="M546.36,874.89V760h12v47.32h46.35V760h11.83V874.89H604.73V820.74H558.38v54.14Z"/><path class="cls-2" d="M640.54,874.89V760h64.71v13.46H652.37v35.3h49.42v13.46H652.37v39.25h55v13.46Z"/><path class="cls-2" d="M751.87,874.89V773.42H722.29V760h71v13.46H763.7V874.89Z"/><path class="cls-2" d="M810.85,874.89V760h11.83V874.89Z"/><path class="cls-2" d="M911.82,834.44l11.83,3.95q-7.64,38.47-37,38.47-21.76,0-31.86-17.53t-10.11-42.77q0-29.13,12.32-43.85T886.8,758q27.86,0,35.31,33.56L910.47,795q-5.92-24-23.85-24-16,0-22.9,13t-6.87,32.6q0,25,8.22,36.16t20.61,11.16Q906.83,863.88,911.82,834.44Z"/><path class="cls-2" d="M938.26,837.91l11-1.26q1.35,13.7,8.59,20.07t18,6.37q11,0,16.58-5.74A18.9,18.9,0,0,0,998,843.78q0-8.32-5.15-12.74t-22.15-9.33q-17.14-5.14-23.15-13.22a30.71,30.71,0,0,1-6-18.84q0-15.44,9.25-23.54A32.53,32.53,0,0,1,973,758q16.63,0,24.92,9.81t8.85,24.53l-11.41,1.2q-1.72-22.08-21.75-22.08-20.64,0-20.64,17.17,0,7.12,4.31,10.92T974.32,807a132,132,0,0,1,19.36,7,27.11,27.11,0,0,1,11.27,10.65q4.5,7.36,4.5,17.89,0,16.21-9.74,25.28a33.23,33.23,0,0,1-23.48,9.06q-18.91,0-28.35-11T938.26,837.91Z"/></svg>